<?xml version="1.0" encoding="utf-8"?>
<!-- Generator: Adobe Illustrator 20.0.0, SVG Export Plug-In . SVG Version: 6.00 Build 0)  -->
<svg version="1.1" id="Layer_1" xmlns="http://www.w3.org/2000/svg" xmlns:xlink="http://www.w3.org/1999/xlink" x="0px" y="0px"
	 viewBox="0 0 32 15" style="enable-background:new 0 0 32 15;" xml:space="preserve">
<style type="text/css">
	.st0{fill:#FFFFFF;}
</style>
<path class="st0" d="M1.9,12.1l28.9-4c0.2,0,0.4,0.3,0.3,0.5c-1.8,3.8-6.2,6.4-11.3,6.4H2.5c-0.1,0-0.2-0.1-0.3-0.2l-0.6-2.3
	C1.6,12.3,1.7,12.1,1.9,12.1"/>
<path class="st0" d="M1.3,6.8l0.2,0.8c0,0.1,0.2,0.2,0.3,0.2L3,7.6c0.1,0,0.2-0.2,0.2-0.3V6.5c0-0.2-0.1-0.4-0.3-0.3L1.5,6.4
	C1.4,6.4,1.3,6.6,1.3,6.8 M4.3,7.1c0,0.2,0.1,0.3,0.3,0.3c0,0,1.1-0.2,1.6-0.2c0.1,0,0.2-0.2,0.2-0.3V5.9c0-0.2-0.1-0.3-0.3-0.3
	L4.5,5.9C4.4,5.9,4.3,6,4.3,6.2V7.1z M10.8,2.4L11.2,3c0,0.1,0,0.1,0,0.2v3c0,0.2,0.1,0.3,0.3,0.3L15.7,6C15.9,6,16,5.8,16,5.6
	l-0.4-3.7c0-0.2-0.1-0.3-0.3-0.3L11,1.9C10.8,1.9,10.7,2.2,10.8,2.4 M16.6,1.9L17,5.5c0,0.2,0.1,0.3,0.3,0.3c1-0.1,5-0.6,5-0.6
	c0.2,0,0.3-0.3,0.2-0.5l-1.8-3.1c-0.1-0.1-0.1-0.1-0.2-0.1l-3.5,0.2C16.7,1.5,16.6,1.7,16.6,1.9 M0.1,5.5c0.1-0.2,0.2-0.3,0.4-0.3
	l8-1.3c0.3,0,0.6,0.2,0.6,0.6c0,0.4-0.2,0.7-0.5,0.7L7.7,5.4c-0.1,0-0.2,0.2-0.2,0.3v1C7.5,6.9,7.6,7,7.8,7l2.1-0.3
	c0.1,0,0.2-0.2,0.2-0.3V3.6c0-0.1,0-0.1,0-0.2L9.2,1.7C9,1.5,9,1.2,9.1,1c0.1-0.2,0.3-0.3,0.5-0.4L20.8,0c0.2,0,0.4,0.1,0.5,0.3
	c0,0,2.1,3.7,2.6,4.5c0.1,0.1,0.2,0.1,0.2,0.1l7.3-1c0.2,0,0.3,0,0.4,0.2C31.9,4.2,32,4.4,32,4.6c0,0.6-0.1,1.2-0.2,1.8
	c0,0.1-0.1,0.2-0.2,0.2L1.4,10.8c-0.1,0-0.2-0.1-0.3-0.2L0,6.1C0,5.9,0,5.7,0.1,5.5"/>
</svg>
