<?xml version="1.0" encoding="utf-8"?>
<!-- Generator: Adobe Illustrator 20.0.0, SVG Export Plug-In . SVG Version: 6.00 Build 0)  -->
<svg version="1.1" id="Layer_1" xmlns="http://www.w3.org/2000/svg" xmlns:xlink="http://www.w3.org/1999/xlink" x="0px" y="0px"
	 viewBox="0 0 72 40" style="enable-background:new 0 0 72 40;" xml:space="preserve">
<style type="text/css">
	.st0{fill:#2C3E50;}
</style>
<path class="st0" d="M61.2,30.8L39.6,18.3L47.8,4l1.8,1.1L43.4,16c-0.3,0.5-0.1,1.2,0.4,1.5c0.2,0.1,0.4,0.1,0.5,0.1
	c0.4,0,0.7-0.2,0.9-0.6l6.3-10.9l17.9,10.4L61.2,30.8z M10.8,30.8L2.6,16.6L20.5,6.2l6.3,10.9c0.2,0.4,0.6,0.6,0.9,0.6
	c0.2,0,0.4,0,0.5-0.1c0.5-0.3,0.7-1,0.4-1.5L22.4,5.1L24.2,4l8.2,14.3L10.8,30.8z M72,15.9c-0.1-0.3-0.3-0.5-0.5-0.7L48.9,2.1
	l0.3-0.4c0.3-0.5,0.1-1.2-0.4-1.5c-0.5-0.3-1.2-0.1-1.5,0.4l-0.8,1.4c0,0,0,0,0,0l-9.3,16.2v0l-1.2,2l-1.1-2v0L25.6,1.9v0l-0.8-1.4
	c-0.3-0.5-1-0.7-1.5-0.4c-0.5,0.3-0.7,1-0.4,1.5l0.3,0.4L0.5,15.2c-0.3,0.1-0.4,0.4-0.5,0.7c-0.1,0.3,0,0.6,0.1,0.8l9.3,16.2
	c0.2,0.4,0.6,0.6,0.9,0.6c0.2,0,0.4,0,0.5-0.1l22.6-13.1l1.2,2.2l-9.2,16c-0.3,0.5-0.1,1.2,0.4,1.5c0.2,0.1,0.4,0.1,0.5,0.1
	c0.4,0,0.7-0.2,0.9-0.6L36,24.6l8.5,14.9c0.2,0.4,0.6,0.6,0.9,0.6c0.2,0,0.4,0,0.5-0.1c0.5-0.3,0.7-1,0.4-1.5l-9.2-16l1.2-2.2
	l22.6,13.1c0.2,0.1,0.4,0.1,0.5,0.1c0.4,0,0.7-0.2,0.9-0.6l9.3-16.2C72,16.5,72,16.2,72,15.9"/>
</svg>
