<?xml version="1.0" encoding="utf-8"?>
<!-- Generator: Adobe Illustrator 20.0.0, SVG Export Plug-In . SVG Version: 6.00 Build 0)  -->
<svg version="1.1" id="Layer_1" xmlns="http://www.w3.org/2000/svg" xmlns:xlink="http://www.w3.org/1999/xlink" x="0px" y="0px"
	 viewBox="0 0 43.9 30" style="enable-background:new 0 0 43.9 30;" xml:space="preserve">
<style type="text/css">
	.st0{fill:#3CA0BE;}
</style>
<path class="st0" d="M40,26c-0.5,0.5-1.1,0.9-1.8,1.2c0,0-0.1,0-0.1,0c-3.1-0.2-5.5-3.1-5.5-6.6c0-1.8,0.6-3.4,1.7-4.7
	c0.2-0.3,0.2-0.7-0.1-0.9c-0.3-0.2-0.7-0.2-1,0.1c-1.3,1.5-2.1,3.4-2.1,5.5c0,3.3,1.9,6.2,4.6,7.3c-0.6,0.1-1.1,0.1-1.7,0.1
	l-23.6-1.3c-2.7-0.1-5-1.8-5.8-4.1h3.5c0.4,0,0.7-0.3,0.7-0.6v-2.4c0-0.4-0.3-0.6-0.7-0.6H4.7c0.8-2.3,3-4,5.8-4.1l16.9-0.9
	c0.4,0,0.7-0.3,0.7-0.7c0-0.4-0.4-0.6-0.7-0.6l-11.2,0.6v-1.8c0-1.5,1.3-2.6,2.9-2.6h2.4c0.4,0,0.7-0.3,0.7-0.6s-0.3-0.6-0.7-0.6
	h-0.2V3.4c0-1.2,1.1-2.2,2.3-2.2h2.3v1.5h-1.2c-1,0-1.8,0.7-1.8,1.6v3.7c0,0.4,0.3,0.6,0.7,0.6h3c1.3,0,2.4,0.8,2.7,1.9l0.8,2.5
	c0.1,0.3,0.4,0.5,0.7,0.5l3.5-0.2c2.2-0.1,4.3,0.6,5.9,2c1.6,1.4,2.5,3.3,2.5,5.3S41.6,24.6,40,26 M6.4,28.7H4.5v-3.8
	c0.8,1,1.7,1.7,2.9,2.3L6.4,28.7z M4.4,20.7c0-0.2,0-0.4,0-0.5h3.1v1.1H4.4C4.4,21.1,4.4,20.9,4.4,20.7 M4.5,13h1.9l0.9,1.3
	c-1.1,0.5-2,1.3-2.8,2.2V13z M41,14.5c-1.9-1.6-4.3-2.4-6.9-2.3l-3,0.2l-0.6-2c0,0,0,0,0,0c-0.5-1.6-2.2-2.8-4.1-2.8h-2.3V4.4
	c0-0.2,0.2-0.4,0.4-0.4h1.9c0.4,0,0.7-0.3,0.7-0.6V0.6c0-0.4-0.3-0.6-0.7-0.6h-3c-2.1,0-3.7,1.5-3.7,3.4v4.1H19
	c-2.3,0-4.2,1.8-4.2,3.9v1.8l-4.3,0.2c-0.6,0-1.2,0.1-1.8,0.3L7.4,12c-0.1-0.2-0.3-0.3-0.6-0.3H3.8c-0.4,0-0.7,0.3-0.7,0.6v7.2
	c0,0.2-0.1,0.3-0.1,0.5H1.4v-2.2c0-0.4-0.3-0.6-0.7-0.6c-0.4,0-0.7,0.3-0.7,0.6v5.6c0,0.4,0.3,0.6,0.7,0.6c0.4,0,0.7-0.3,0.7-0.6
	v-2.2h1.7c0,0.2,0,0.4,0.1,0.6c0,0,0,0.1,0,0.2v7.3c0,0.4,0.3,0.6,0.7,0.6h2.9c0.2,0,0.5-0.1,0.6-0.3l1.4-2.1
	c0.5,0.1,1.1,0.2,1.7,0.3L34,29.2c0.2,0,0.4,0,0.6,0c2.4,0,4.6-0.8,6.3-2.3c1.9-1.6,2.9-3.8,2.9-6.2S42.8,16.1,41,14.5 M23.4,22.1
	L23.4,22.1c-1,0-1.8-0.8-1.8-1.7c0-0.9,0.8-1.7,1.8-1.7h0c1,0,1.8,0.8,1.8,1.7C25.3,21.4,24.5,22.1,23.4,22.1 M23.5,17.5L23.5,17.5
	c-1.8,0-3.2,1.3-3.2,2.9c0,1.6,1.4,3,3.2,3h0c1.8,0,3.2-1.3,3.2-2.9C26.7,18.8,25.3,17.5,23.5,17.5 M14.3,22.1L14.3,22.1
	c-1,0-1.8-0.8-1.8-1.7c0-0.9,0.8-1.7,1.8-1.7h0c1,0,1.8,0.8,1.8,1.7C16.2,21.4,15.3,22.1,14.3,22.1 M14.4,17.5L14.4,17.5
	c-1.8,0-3.2,1.3-3.2,2.9c0,1.6,1.4,3,3.2,3h0c1.8,0,3.2-1.3,3.2-2.9C17.6,18.8,16.2,17.5,14.4,17.5"/>
</svg>
