<?xml version="1.0" encoding="utf-8"?>
<!-- Generator: Adobe Illustrator 20.0.0, SVG Export Plug-In . SVG Version: 6.00 Build 0)  -->
<svg version="1.1" id="Layer_1" xmlns="http://www.w3.org/2000/svg" xmlns:xlink="http://www.w3.org/1999/xlink" x="0px" y="0px"
	 viewBox="0 0 43.9 53.9" style="enable-background:new 0 0 43.9 53.9;" xml:space="preserve">
<style type="text/css">
	.st0{fill:#FFFFFF;}
</style>
<path class="st0" d="M23.7,5.9c0,1-0.8,1.7-1.7,1.7c-1,0-1.7-0.8-1.7-1.7c0-1,0.8-1.7,1.7-1.7C22.9,4.1,23.7,4.9,23.7,5.9
	 M38.8,31.6c-0.3,0.1-0.5,0.4-0.5,0.8v1.9c0,9.4-8,12.6-12.8,13.7c-0.2,0-0.3,0.1-0.4,0.3l-3.2,3.5l-3.2-3.5
	c-0.1-0.1-0.3-0.2-0.5-0.3c-4.8-1.1-12.8-4.3-12.8-13.7v-1.9c0-0.3-0.2-0.6-0.5-0.8l-2.5-1.2l5.2-3.2c0.2,1.9,0.4,4.9,0.5,5.3
	c0.4,3.1,1.8,5.9,4.2,8c2.2,2,5.1,3.3,8.4,3.8c0.5,0.1,0.9-0.3,1-0.7c0.1-0.5-0.3-0.9-0.7-1c-0.2,0-0.4-0.1-0.6-0.1V18.7h0.9
	c0.5,0,0.9-0.4,0.9-0.8c0-0.5-0.4-0.9-0.9-0.9h-1.9c0,0,0,0,0,0h-4.3v-2h4.4c0.5,0,0.9-0.4,0.9-0.9v-2.6c0.1,0,0.3,0.1,0.4,0.1
	c0.1,0,0.1,0,0.2,0c0.4,0,0.8-0.3,0.8-0.7c0.1-0.5-0.2-0.9-0.7-1c-2-0.4-3.4-2.1-3.4-4.1c0-2.3,1.9-4.2,4.2-4.2
	c2.3,0,4.2,1.9,4.2,4.2c0,1.6-0.9,3-2.3,3.7c-0.3,0.1-0.5,0.4-0.5,0.8v3.7c0,0.5,0.4,0.9,0.9,0.9h4.5v2h-4.4c-0.5,0-0.9,0.4-0.9,0.8
	v25.4c0,0,0,0,0,0c0,0,0,0,0,0c0,0,0,0,0,0c0,0,0,0,0,0c0,0,0,0,0,0.1c0,0,0,0,0,0c0,0,0,0,0,0c0,0,0,0,0,0.1c0,0,0,0,0,0
	c0,0,0,0,0,0.1c0,0,0,0,0,0c0,0,0,0,0,0c0,0,0,0,0,0c0,0,0,0,0,0c0,0,0,0,0,0c0,0,0,0,0,0c0,0,0,0,0,0c0,0,0,0,0,0c0,0,0,0,0,0
	c0,0,0,0,0,0c0,0,0,0,0,0c0,0,0,0,0,0c0,0,0,0,0,0c0,0,0,0,0,0c0,0,0,0,0,0c0,0,0,0,0,0c0,0,0,0,0,0c0,0,0,0,0,0c0,0,0,0,0,0
	c0,0,0,0,0,0c0,0,0,0,0.1,0c0,0,0,0,0,0c0,0,0,0,0.1,0c0,0,0,0,0,0c0,0,0,0,0,0c0,0,0,0,0.1,0c0,0,0,0,0,0c0,0,0,0,0,0c0,0,0,0,0,0
	c0,0,0,0,0,0c3.1-0.7,5.7-2,7.7-4c2.1-2,3.5-4.7,3.9-7.6c0.1-0.4,0.1-3.3,0.1-5.2l5.1,3.1L38.8,31.6z M43.5,29.8L35.8,25
	c-0.3-0.2-0.6-0.2-0.9,0c-0.3,0.1-0.4,0.4-0.4,0.7c0,2.9-0.1,6.2-0.1,6.5c-0.6,4.8-4,8.4-9.2,9.9V18.7h4.4c0.5,0,0.9-0.4,0.9-0.9
	v-3.7c0-0.5-0.4-0.9-0.9-0.9h-4.5v-2.4c1.7-1.1,2.7-2.9,2.7-5c0-3.3-2.7-5.9-5.9-5.9C18.7,0,16,2.7,16,5.9c0,2,1,3.9,2.7,5v2.4h-4.4
	c-0.5,0-0.9,0.4-0.9,0.9v3.7c0,0.5,0.4,0.9,0.9,0.9h4.4v23.4c-4.8-1.4-8.2-5.1-8.8-9.8c0-0.4-0.4-4.2-0.6-6.6c0-0.3-0.2-0.6-0.5-0.7
	c-0.3-0.1-0.6-0.1-0.8,0l-7.7,4.7C0.1,29.9,0,30.2,0,30.5s0.2,0.6,0.5,0.7l3.4,1.7v1.4c0,4.1,1.4,7.6,4.1,10.3c2.4,2.4,5.6,4,9.7,5
	l3.7,4.1c0.2,0.2,0.4,0.3,0.6,0.3c0.2,0,0.5-0.1,0.6-0.3l3.7-4.1c4.1-1,7.4-2.6,9.7-5c2.7-2.7,4.1-6.2,4.1-10.3v-1.4l3.4-1.7
	c0.3-0.1,0.5-0.4,0.5-0.7S43.7,29.9,43.5,29.8"/>
</svg>
