<?xml version="1.0" encoding="utf-8"?>
<!-- Generator: Adobe Illustrator 20.0.0, SVG Export Plug-In . SVG Version: 6.00 Build 0)  -->
<svg version="1.1" id="Layer_1" xmlns="http://www.w3.org/2000/svg" xmlns:xlink="http://www.w3.org/1999/xlink" x="0px" y="0px"
	 viewBox="0 0 52 44" style="enable-background:new 0 0 52 44;" xml:space="preserve">
<style type="text/css">
	.st0{fill:#0078A0;}
</style>
<path class="st0" d="M49.7,6.5c-0.7,0.9-2,1-2.8,0.3c-0.6-0.5-0.7-1.4-0.2-2c0.2-0.3,0.2-0.6,0.1-0.9c-0.1-0.3-0.5-0.5-0.8-0.5h-1.9
	c0,0,0.1-0.1,0.1-0.1c1.2-1.6,3.6-1.9,5.1-0.6C50.4,3.5,50.6,5.3,49.7,6.5 M43,6.2c0-0.4,0-0.7,0.1-1.1h1.4c-0.1,0.7,0,1.5,0.4,2.2
	H43V6.2z M41.3,6.2v31.7c0,1.1-0.4,2.1-1,3c-0.7,0.9-1.7,1.4-2.9,1.4h-0.2c-1.6,0-3-1.3-3.1-2.9H39c0.5,0,0.9-0.4,0.9-0.9
	c0-1.9-1.5-3.5-3.4-3.5c0,0-25.7,0-25.7,0V6.2c0-1.1,0.4-2.1,1-3c0.7-0.9,1.7-1.4,2.9-1.4h0c0,0,0,0,0,0h28.3
	c-0.1,0.1-0.2,0.2-0.3,0.3C41.8,3.3,41.3,4.7,41.3,6.2 M37.8,37.5h-3.2c0.4-0.5,1.1-0.8,1.8-0.8C37,36.7,37.5,37.1,37.8,37.5
	 M5.1,42.2c-0.8,0-1.6-0.3-2.3-0.8c-1.2-0.9-1.4-2.7-0.5-3.9c0.4-0.5,1-0.8,1.6-0.8c0,0,0,0,0,0h29c-0.3,0.4-0.5,1-0.6,1.5v0
	c-0.1,0.3-0.1,0.5-0.1,0.8c0,1.2,0.4,2.3,1.1,3.1H5.1z M50.3,1.2C49.3,0.4,48.1,0,47,0c0,0-32.3,0-32.4,0c-1.7,0-3.2,0.8-4.2,2.1
	C9.5,3.3,9,4.7,9,6.2V35H4c-1.2,0-2.3,0.5-3.1,1.5c-1.5,2-1.2,4.8,0.7,6.4c1,0.8,2.1,1.2,3.3,1.2c0,0,32.3,0,32.3,0
	c1.7,0,3.2-0.8,4.2-2.1c0.9-1.2,1.4-2.6,1.4-4.1V9h5c1.1,0,2.3-0.5,3-1.4C52.6,5.6,52.2,2.7,50.3,1.2"/>
<path class="st0" d="M36.3,11c-0.4,0-0.6-0.1-0.9-0.4c-0.4-0.3-1-0.8-2-0.8c-1,0-1.6,0.5-2,0.8C31,10.9,30.8,11,30.4,11
	c-0.4,0-0.6-0.1-0.9-0.4c-0.4-0.3-1-0.8-2-0.8c-1,0-1.6,0.5-2,0.8C25.1,10.9,25,11,24.5,11c-0.4,0-0.6-0.1-0.9-0.4
	c-0.4-0.3-1-0.8-2-0.8c-1,0-1.6,0.5-2,0.8c-0.3,0.3-0.5,0.4-0.9,0.4c-0.4,0-0.6-0.1-0.9-0.4c-0.4-0.3-1-0.8-2-0.8
	c-0.5,0-0.9,0.4-0.9,0.9c0,0.5,0.4,0.9,0.9,0.9c0.4,0,0.6,0.1,0.9,0.4c0.4,0.3,1,0.8,2,0.8c1,0,1.6-0.5,2-0.8
	c0.3-0.3,0.5-0.4,0.9-0.4c0.4,0,0.6,0.1,0.9,0.4c0.4,0.3,1,0.8,2,0.8c1,0,1.6-0.5,2-0.8c0.3-0.3,0.5-0.4,0.9-0.4
	c0.4,0,0.6,0.1,0.9,0.4c0.4,0.3,1,0.8,2,0.8c1,0,1.6-0.5,2-0.8c0.3-0.3,0.5-0.4,0.9-0.4c0.4,0,0.6,0.1,0.9,0.4c0.4,0.3,1,0.8,2,0.8
	c0.5,0,0.9-0.4,0.9-0.9C37.2,11.4,36.8,11,36.3,11"/>
<path class="st0" d="M36.3,15.9c-0.4,0-0.6-0.1-0.9-0.4c-0.4-0.3-1-0.8-2-0.8c-1,0-1.6,0.5-2,0.8c-0.3,0.3-0.5,0.4-0.9,0.4
	c-0.4,0-0.6-0.1-0.9-0.4c-0.4-0.3-1-0.8-2-0.8c-1,0-1.6,0.5-2,0.8c-0.3,0.3-0.5,0.4-0.9,0.4c-0.4,0-0.6-0.1-0.9-0.4
	c-0.4-0.3-1-0.8-2-0.8c-1,0-1.6,0.5-2,0.8c-0.3,0.3-0.5,0.4-0.9,0.4c-0.4,0-0.6-0.1-0.9-0.4c-0.4-0.3-1-0.8-2-0.8
	c-0.5,0-0.9,0.4-0.9,0.9c0,0.5,0.4,0.9,0.9,0.9c0.4,0,0.6,0.1,0.9,0.4c0.4,0.3,1,0.8,2,0.8c1,0,1.6-0.5,2-0.8
	c0.3-0.3,0.5-0.4,0.9-0.4c0.4,0,0.6,0.1,0.9,0.4c0.4,0.3,1,0.8,2,0.8c1,0,1.6-0.5,2-0.8c0.3-0.3,0.5-0.4,0.9-0.4
	c0.4,0,0.6,0.1,0.9,0.4c0.4,0.3,1,0.8,2,0.8c1,0,1.6-0.5,2-0.8c0.3-0.3,0.5-0.4,0.9-0.4c0.4,0,0.6,0.1,0.9,0.4c0.4,0.3,1,0.8,2,0.8
	c0.5,0,0.9-0.4,0.9-0.9C37.2,16.3,36.8,15.9,36.3,15.9"/>
<path class="st0" d="M36.3,20.8c-0.4,0-0.6-0.1-0.9-0.4c-0.4-0.3-1-0.8-2-0.8c-1,0-1.6,0.5-2,0.8c-0.3,0.3-0.5,0.4-0.9,0.4
	c-0.4,0-0.6-0.1-0.9-0.4c-0.4-0.3-1-0.8-2-0.8c-1,0-1.6,0.5-2,0.8c-0.3,0.3-0.5,0.4-0.9,0.4c-0.4,0-0.6-0.1-0.9-0.4
	c-0.4-0.3-1-0.8-2-0.8c-1,0-1.6,0.5-2,0.8c-0.3,0.3-0.5,0.4-0.9,0.4c-0.4,0-0.6-0.1-0.9-0.4c-0.4-0.3-1-0.8-2-0.8
	c-0.5,0-0.9,0.4-0.9,0.9c0,0.5,0.4,0.9,0.9,0.9c0.4,0,0.6,0.1,0.9,0.4c0.4,0.3,1,0.8,2,0.8c1,0,1.6-0.5,2-0.8
	c0.3-0.3,0.5-0.4,0.9-0.4c0.4,0,0.6,0.1,0.9,0.4c0.4,0.3,1,0.8,2,0.8c1,0,1.6-0.5,2-0.8c0.3-0.3,0.5-0.4,0.9-0.4
	c0.4,0,0.6,0.1,0.9,0.4c0.4,0.3,1,0.8,2,0.8c1,0,1.6-0.5,2-0.8c0.3-0.3,0.5-0.4,0.9-0.4c0.4,0,0.6,0.1,0.9,0.4c0.4,0.3,1,0.8,2,0.8
	c0.5,0,0.9-0.4,0.9-0.9C37.2,21.2,36.8,20.8,36.3,20.8"/>
<path class="st0" d="M31.5,31.4l1-1.1l1,1.1C33,31.7,32.2,31.7,31.5,31.4 M30.3,30.2c-0.3-0.7-0.3-1.4,0-2.1l1,1.1L30.3,30.2z
	 M33.6,26.8l-1,1.1l-1-1.1c0.3-0.2,0.7-0.2,1-0.2C32.9,26.6,33.3,26.7,33.6,26.8 M34.9,30.2l-1-1.1l1-1.1
	C35.2,28.7,35.2,29.5,34.9,30.2 M29.6,26.1c-1.7,1.7-1.7,4.4,0,6.1c0.8,0.8,1.9,1.3,3,1.3c1.1,0,2.2-0.4,3-1.3
	c1.7-1.7,1.7-4.4,0-6.1C33.9,24.4,31.2,24.4,29.6,26.1"/>
</svg>
