<?xml version="1.0" encoding="utf-8"?>
<!-- Generator: Adobe Illustrator 20.0.0, SVG Export Plug-In . SVG Version: 6.00 Build 0)  -->
<svg version="1.1" id="Layer_1" xmlns="http://www.w3.org/2000/svg" xmlns:xlink="http://www.w3.org/1999/xlink" x="0px" y="0px"
	 viewBox="0 0 50 44.6" style="enable-background:new 0 0 50 44.6;" xml:space="preserve">
<style type="text/css">
	.st0{fill:#FFFFFF;}
</style>
<path class="st0" d="M14,10.7c-0.6-0.6-0.6-1.6,0-2.2c0.6-0.6,1.6-0.6,2.2,0c0.6,0.6,0.6,1.6,0,2.2S14.6,11.4,14,10.7 M41.4,33.8
	c0.6,0.6,0.6,1.6,0,2.2c-0.6,0.6-1.6,0.6-2.2,0c-0.6-0.6-0.6-1.6,0-2.2C39.9,33.2,40.8,33.2,41.4,33.8 M11.4,22.3
	c0,0.9-0.7,1.5-1.5,1.5c-0.9,0-1.5-0.7-1.5-1.5c0-0.9,0.7-1.5,1.5-1.5C10.7,20.8,11.4,21.4,11.4,22.3 M47.1,22.3
	c0,0.9-0.7,1.5-1.5,1.5S44,23.1,44,22.3c0-0.9,0.7-1.5,1.5-1.5S47.1,21.4,47.1,22.3 M16.2,33.8c0.6,0.6,0.6,1.6,0,2.2
	c-0.6,0.6-1.6,0.6-2.2,0c-0.6-0.6-0.6-1.6,0-2.2C14.6,33.2,15.6,33.2,16.2,33.8 M39.3,10.7c-0.6-0.6-0.6-1.6,0-2.2
	c0.6-0.6,1.6-0.6,2.2,0c0.6,0.6,0.6,1.6,0,2.2C40.8,11.4,39.9,11.4,39.3,10.7 M29.2,40.2c0,0.9-0.7,1.5-1.5,1.5
	c-0.9,0-1.5-0.7-1.5-1.5c0-0.9,0.7-1.5,1.5-1.5C28.6,38.6,29.2,39.3,29.2,40.2 M26.2,4.4c0-0.9,0.7-1.5,1.5-1.5
	c0.9,0,1.5,0.7,1.5,1.5c0,0.9-0.7,1.5-1.5,1.5C26.9,6,26.2,5.3,26.2,4.4 M27.7,35.3c-2.5,0-4.8-0.7-6.8-1.9l14.9-14.9
	c0.3-0.3,0.3-0.8,0-1.1c-0.3-0.3-0.8-0.3-1.1,0L19.6,32.4c-1.3-1.1-2.4-2.4-3.2-3.8l14.9-14.9c0.3-0.3,0.3-0.8,0-1.1
	c-0.3-0.3-0.8-0.3-1.1,0L15.6,27.1c-0.6-1.5-0.9-3.1-0.9-4.8c0-7.2,5.8-13,13-13s13,5.8,13,13S34.9,35.3,27.7,35.3 M27.7,7.7
	c-8,0-14.6,6.5-14.6,14.6c0,2.3,0.5,4.5,1.5,6.5c0,0.1,0,0.1,0.1,0.2c2.4,4.7,7.3,8,13,8c8,0,14.6-6.5,14.6-14.6S35.7,7.7,27.7,7.7
	 M27.7,43C16.3,43,7,33.7,7,22.3S16.3,1.6,27.7,1.6s20.7,9.3,20.7,20.7S39.1,43,27.7,43 M1.6,29.8v-4h4.1c0.2,1.4,0.6,2.7,1,4H1.6z
	 M1.6,18.7v-4h5.1c-0.5,1.3-0.8,2.6-1,4H1.6z M27.7,0c-9,0-16.8,5.4-20.3,13.2H0.8C0.4,13.2,0,13.5,0,14v5.6c0,0.4,0.4,0.8,0.8,0.8
	h4.7c-0.1,0.7-0.1,1.3-0.1,2s0,1.3,0.1,2H0.8c-0.4,0-0.8,0.4-0.8,0.8v5.6c0,0.4,0.4,0.8,0.8,0.8h6.6c3.5,7.8,11.3,13.2,20.3,13.2
	C40,44.6,50,34.6,50,22.3S40,0,27.7,0"/>
</svg>
