<?xml version="1.0" encoding="utf-8"?>
<!-- Generator: Adobe Illustrator 20.0.0, SVG Export Plug-In . SVG Version: 6.00 Build 0)  -->
<svg version="1.1" id="Layer_1" xmlns="http://www.w3.org/2000/svg" xmlns:xlink="http://www.w3.org/1999/xlink" x="0px" y="0px"
	 viewBox="0 0 34.6 46" style="enable-background:new 0 0 34.6 46;" xml:space="preserve">
<style type="text/css">
	.st0{fill:#FFFFFF;}
</style>
<path class="st0" d="M33.1,40.4c0,0-0.1,0.1-0.2,0.1H1.7c-0.1,0-0.2-0.1-0.2-0.1c0,0-0.1-0.1,0-0.3l2-2.7C4,36.7,4.3,36,4.5,35.2
	h22.3c0.4,0,0.7-0.3,0.7-0.7c0-0.4-0.3-0.7-0.7-0.7H4.5V25c0-7,5.7-12.8,12.8-12.8S30.1,18,30.1,25v9.4c0,1.1,0.4,2.1,1,3l2,2.7
	C33.2,40.2,33.2,40.3,33.1,40.4 M19.3,42.6c0,1.1-0.9,2-2,2c-1.1,0-2-0.9-2-2V42h3.9V42.6z M14,4.8c0-1.8,1.5-3.3,3.3-3.3
	c1.8,0,3.3,1.5,3.3,3.3c0,1.6-1.1,2.9-2.6,3.2V7.5c0-0.4-0.3-0.7-0.7-0.7c-0.4,0-0.7,0.3-0.7,0.7V8C15.1,7.7,14,6.4,14,4.8
	 M34.3,39.2l-2-2.7c-0.5-0.6-0.7-1.3-0.7-2.1V25c0-7.6-6-13.8-13.5-14.2V9.5c2.3-0.4,4.1-2.3,4.1-4.7c0-2.6-2.1-4.8-4.8-4.8
	s-4.8,2.1-4.8,4.8c0,2.4,1.8,4.4,4.1,4.7v1.3C9.1,11.2,3.1,17.4,3.1,25v9.4c0,0.8-0.2,1.5-0.7,2.1l-2,2.7C0,39.8-0.1,40.4,0.2,41
	C0.5,41.6,1,42,1.7,42h12.2v0.6c0,1.9,1.5,3.4,3.4,3.4c1.9,0,3.4-1.5,3.4-3.4V42h12.2c0.6,0,1.2-0.4,1.5-0.9
	C34.7,40.4,34.7,39.8,34.3,39.2"/>
</svg>
