<?xml version="1.0" encoding="utf-8"?>
<!-- Generator: Adobe Illustrator 20.0.0, SVG Export Plug-In . SVG Version: 6.00 Build 0)  -->
<svg version="1.1" id="Layer_1" xmlns="http://www.w3.org/2000/svg" xmlns:xlink="http://www.w3.org/1999/xlink" x="0px" y="0px"
	 viewBox="0 0 46 37.5" style="enable-background:new 0 0 46 37.5;" xml:space="preserve">
<style type="text/css">
	.st0{fill:#FFFFFF;}
</style>
<path class="st0" d="M16.9,35.7c-0.3,0.2-0.6,0.4-1,0.4s-0.7-0.1-1-0.4l-8.3-7.9c-0.3-0.2-0.4-0.6-0.4-0.9c0-0.4,0.1-0.7,0.4-0.9
	l2.5-2.4c0.3,0.1,0.6,0.2,1.1,0.2c1,0,1.6-0.3,2-0.6c0.4-0.2,0.6-0.4,1.2-0.4c0.5,0,0.8,0.1,1.1,0.3l-3.4,3.3
	c-0.6,0.6-0.9,1.3-0.9,2.1c0,1.2,0.6,2.3,1.7,3c0.6,0.4,1.3,0.6,2.1,0.6h0c1.2,0,2.3-0.4,3.2-1.3l8.3-7.9c0.2-0.1,0.4-0.2,0.8-0.2
	c0.6,0,0.8,0.1,1.2,0.4c0.4,0.3,1,0.6,2,0.6c0,0,0,0,0.1,0L16.9,35.7z M26.7,14.1c0-0.4,0.2-0.8,0.5-1.1c0.3-0.3,0.7-0.4,1.1-0.4
	c0.5,0,1,0.3,1.1,0.8l-2.2,2.1C26.9,15.1,26.7,14.6,26.7,14.1 M24.2,21.8c-0.4,0.2-0.6,0.4-1.2,0.4s-0.8-0.1-1.2-0.4
	c-0.4-0.3-1-0.6-2-0.6c-0.7,0-1.1,0.1-1.5,0.3l6.9-6.6c0.2,0.9,0.8,1.7,1.6,2.2c0.5,0.3,1.1,0.5,1.8,0.6l-4.1,3.9
	C24.4,21.7,24.3,21.7,24.2,21.8 M16.1,23.6c0.2,0,0.3,0,0.5,0c1,0,1.6-0.3,2-0.6c0.4-0.2,0.6-0.4,1.2-0.4c0.6,0,0.8,0.1,1.2,0.4
	c0.3,0.2,0.8,0.5,1.4,0.6l-6.3,6.1c-0.6,0.5-1.3,0.8-2.1,0.8h0c-0.4,0-0.8-0.1-1.2-0.3c-0.6-0.4-1-1-1-1.8c0-0.4,0.2-0.8,0.5-1.1
	L16.1,23.6z M22.8,10.4c0.8-0.8,1.9-1.2,3-1.2c0.4,0,0.7,0,1.1,0.1c2,0.5,4.1,0,5.6-1.4l1-0.9l3.1,3l-1,0.9c-1.5,1.4-2,3.5-1.5,5.4
	c0.4,1.4,0,2.9-1.1,3.9l-1.1,1.1c-0.7,0.1-1.1,0.4-1.4,0.6c-0.4,0.2-0.6,0.4-1.2,0.4s-0.8-0.1-1.2-0.4c-0.3-0.2-0.7-0.4-1.2-0.5
	l5-4.8c0,0,0,0,0,0c0.8-0.8,1.3-1.9,1.3-3c0-0.4-0.3-0.7-0.8-0.7s-0.8,0.3-0.8,0.7c0,0.8-0.3,1.5-0.9,2c-0.6,0.5-1.3,0.8-2.1,0.8h0
	c-0.1,0-0.2,0-0.3,0l2.1-2c0.1-0.1,0.2-0.3,0.2-0.5c0-1.4-1.2-2.6-2.7-2.6c-0.8,0-1.6,0.3-2.2,0.9c0,0,0,0,0,0l-10.4,9.9
	c-0.1,0-0.2-0.1-0.2-0.1c-0.4-0.3-1-0.6-2-0.6c-1,0-1.6,0.3-2,0.6c-0.3,0.2-0.5,0.3-0.9,0.4L22.8,10.4z M35.5,3.6L40.1,8l-1.7,1.6
	l-4.6-4.4L35.5,3.6z M39.2,1.9l2.7,2.6L40,5.9l-2.3-2.2L39.2,1.9z M45.2,21.2c-1,0-1.6,0.3-2,0.6c-0.4,0.2-0.6,0.4-1.2,0.4
	c-0.6,0-0.8-0.1-1.2-0.4c-0.4-0.3-1-0.6-2-0.6s-1.6,0.3-2,0.6c-0.4,0.2-0.6,0.4-1.2,0.4c-0.6,0-0.8-0.1-1.2-0.4
	c-0.2-0.1-0.4-0.2-0.6-0.4l0.2-0.2c1.5-1.4,2-3.5,1.5-5.4c-0.4-1.4,0-2.9,1.1-3.9l1-0.9l0.2,0.2c0.2,0.1,0.3,0.2,0.5,0.2
	c0.2,0,0.4-0.1,0.5-0.2l2.8-2.7c0.3-0.3,0.3-0.8,0-1L41.1,7l2.4-1.8c0.2-0.1,0.3-0.3,0.3-0.5c0-0.2-0.1-0.4-0.2-0.6l-4-3.8
	C39.5,0.1,39.3,0,39.1,0c-0.2,0-0.4,0.1-0.6,0.3l-1.9,2.3L36,2.1c-0.3-0.3-0.8-0.3-1.1,0l-2.8,2.7c-0.3,0.3-0.3,0.8,0,1L32.4,6
	l-1,0.9c-1.1,1-2.6,1.4-4.1,1c-2-0.5-4.1,0-5.6,1.4L8.9,21.7c-0.4-0.2-0.9-0.5-1.8-0.5c-1,0-1.6,0.3-2,0.6c-0.4,0.2-0.6,0.4-1.2,0.4
	c-0.6,0-0.8-0.1-1.2-0.4c-0.4-0.3-1-0.6-2-0.6c-0.4,0-0.8,0.3-0.8,0.7s0.3,0.7,0.8,0.7c0.6,0,0.8,0.1,1.2,0.4c0.4,0.3,1,0.6,2,0.6
	c1,0,1.6-0.3,2-0.6c0.4-0.2,0.6-0.4,1.2-0.4c0.3,0,0.5,0,0.7,0.1l-2.2,2.1c-0.5,0.5-0.9,1.2-0.9,2c0,0.7,0.3,1.4,0.9,2l8.3,7.9
	c0.6,0.5,1.3,0.8,2.1,0.8c0.7,0,1.5-0.3,2.1-0.8l14.6-14c0.5,0,0.7,0.2,1.1,0.4c0.4,0.3,1,0.6,2,0.6c1,0,1.6-0.3,2-0.6
	c0.4-0.2,0.6-0.4,1.2-0.4c0.6,0,0.8,0.1,1.2,0.4c0.4,0.3,1,0.6,2,0.6s1.6-0.3,2-0.6c0.4-0.2,0.6-0.4,1.2-0.4c0.4,0,0.8-0.3,0.8-0.7
	S45.7,21.2,45.2,21.2"/>
</svg>
