<?xml version="1.0" encoding="utf-8"?>
<!-- Generator: Adobe Illustrator 20.0.0, SVG Export Plug-In . SVG Version: 6.00 Build 0)  -->
<svg version="1.1" id="Layer_1" xmlns="http://www.w3.org/2000/svg" xmlns:xlink="http://www.w3.org/1999/xlink" x="0px" y="0px"
	 viewBox="0 0 225.5 91.9" style="enable-background:new 0 0 225.5 91.9;" xml:space="preserve">
<style type="text/css">
	.st0{fill:#FFFFFF;}
</style>
<path class="st0" d="M3.7,71.8C3.4,72,3,72.1,2.6,72.1c-1.3,0-2.6-1.4-2.6-3.2c0-2.4,1.4-4,2.7-5.3c7.5-7.5,9.7,1.8,12.9-14.9
	c0.1-0.5,0.1-1,0.1-1.5c0-8.7-14.9-12.4-14.9-25.9c0-10.9,7.9-17.6,14.8-20.9C16,0.2,16.4,0,16.8,0c1.5,0,2.8,2,2.8,3.9
	c0,5.1-15,5.2-15,15.8C4.6,29.6,20,33.9,20,46.2C20,57.6,11.3,68.3,3.7,71.8"/>
<path class="st0" d="M53.6,49.3c0,1.6,1.5,9.4,2.8,9.4c0.5,0,2.6-4.3,4.8-4.3c1.3,0,2.6,1.4,2.6,3.2c0,3-5.8,5.9-7.6,5.9
	c-5.9,0-6.7-9.9-6.9-15.7c-0.7,0.3-1.4,0.7-2.2,0.7c-1.3,0-2.5-1.5-2.5-3.2c0-3.8,3.2-1.8,4.9-3.7c2.2-2.5,0.9-17.1,5.2-17.1
	c1.3,0,2.7,1,2.7,2.9c0,4.4-3.8,7.6-3.8,12.2c0,1.6,1.5,1.8,2.4,1.8c2.9,0,5.3-3,8.2-3c1.3,0,3.1,0.3,3.1,2.5
	C67.3,47.6,53.6,42.1,53.6,49.3"/>
<path class="st0" d="M106,45.9c-0.7,0-1.2,1-1.6,1.6c-2.2,2.7-12.9-0.4-12.9,6.2c0,1.8,3.1,1.7,4,1.8c2.8,0.5,5.1,3.2,8,3.2
	c2.8,0,9.5-2.3,9.5-7C112.9,48.8,107.9,45.9,106,45.9 M122.2,50.4c-1.2,0-2.2-0.8-3.4-0.8c-1.7,0-6.5,13.6-17.9,13.6
	c-4.3,0-13.6-1.6-13.6-9.3c0-9.3,11.2-12.3,16.6-12.3c1.2,0,1.1,2.5,2.4,2.5c1.3,0,3-4,5.2-4c2.2,0,2,5.1,4.6,5.1
	c2,0,4.1-0.4,6.1-0.4c1.4,0,3.1,0.4,3.1,2.8C125.2,49.5,123.5,50.4,122.2,50.4"/>
<path class="st0" d="M160.9,52c-2,0-3-3.1-5.1-3.1c-0.6,0-1.1,0.3-1.6,0.7c-5.1,4-3.5,13.5-7.3,13.5c-1.6,0-2-1.3-2.5-3.1
	c-1.2-4.4-2.4-8.8-2.4-13.6c0-1.8,1.4-3,2.6-3c1.2,0,2.5,1.1,2.5,2.8c0,1.7-1.1,2.9-1.2,4.5l0.3,0.5c3.8-0.2,7.4-10.4,12-10.4
	c2.3,0,1,5.2,2.8,5.2c0.9,0,1.8-0.8,2.7-0.8c0.9,0,2.1,1.7,2.1,2.8C165.8,50.3,162.2,52,160.9,52"/>
<path class="st0" d="M223.9,59.5c-1.4,0-2.2-3.9-4.5-3.9c-4.4,0-7.1,6-10.6,6c-3,0-3.7-5.9-7.4-5.9c-4.6,0-6.7,8.1-11.7,8.1
	c-3.4,0-6.9-10.6-6.9-14.4c0-1.5,1.1-2.6,2.2-2.6c5.3,0,1.9,11.5,5.1,11.5c4.7,0,8.6-7.3,14-7.3c4.4,0,3.4,5.1,5.1,5.1
	c2.5,0,6.3-6,10.7-6c2.8,0,5.5,3.2,5.5,7.1C225.5,58.1,224.9,59.5,223.9,59.5"/>
<path class="st0" d="M39,76.2l1.5-0.6l-0.7,2.8h2l-0.2,0.7h-2l-0.8,3.4c-0.3,1-0.4,1.7-0.4,2.1c0,0.2,0,0.3,0.1,0.4
	c0.1,0.1,0.2,0.1,0.3,0.1c0.2,0,0.5-0.1,0.9-0.4c0.5-0.3,1-0.7,1.5-1.1l0.4,0.5c-1.4,1.1-2.3,1.8-2.8,2c-0.5,0.2-0.8,0.4-1.1,0.4
	c-0.2,0-0.4-0.1-0.6-0.3C37,86.1,37,85.8,37,85.4c0-0.5,0.1-1.2,0.4-2.2l1-4h-1.5l0.2-0.7h1.5L39,76.2z"/>
<path class="st0" d="M49.9,86.2h-1.5l0.7-2.7c0.3-1.3,0.6-2.6,0.9-3.8c0.1-0.3,0.1-0.5,0.1-0.6c0-0.2-0.1-0.2-0.2-0.2
	c-0.1,0-0.2,0.1-0.5,0.2c-0.2,0.1-0.6,0.5-1.1,1L48,79.7c0.6-0.7,1.3-1.2,1.9-1.6c0.6-0.3,1.1-0.5,1.4-0.5c0.1,0,0.2,0,0.3,0.1
	c0.1,0.1,0.1,0.1,0.1,0.2c0,0.1,0,0.3-0.1,0.7l-0.4,1.8c0.7-1.1,1.4-2,2.3-2.8c0.4-0.4,0.7-0.6,1-0.6c0.2,0,0.4,0.1,0.5,0.2
	c0.1,0.1,0.2,0.3,0.2,0.5c0,0.2-0.1,0.3-0.2,0.5c-0.1,0.1-0.4,0.3-1,0.5c-0.5,0.2-0.9,0.4-1.2,0.6c-0.3,0.2-0.6,0.6-1,1.1
	c-0.4,0.5-0.6,0.9-0.8,1.3c-0.1,0.4-0.4,1.2-0.7,2.5L49.9,86.2z"/>
<path class="st0" d="M64.9,79.1C64.5,79.1,64.2,79,64,79c-0.6,0-1.1,0.2-1.6,0.5c-0.4,0.3-0.9,0.9-1.2,1.8c-0.4,0.9-0.6,1.7-0.6,2.6
	c0,0.5,0.1,0.8,0.2,1c0.2,0.2,0.4,0.3,0.6,0.3c0.5,0,0.9-0.3,1.5-0.8c0.5-0.5,0.9-1.2,1.2-2.2L64.9,79.1z M66.1,77.6l0.7-0.1L66,80
	c-0.3,1-0.6,2.2-0.8,3.5C65,84.2,65,84.7,65,84.9c0,0.2,0.1,0.3,0.2,0.3c0.1,0,0.3-0.1,0.5-0.2c0.4-0.2,0.8-0.6,1.2-0.9l0.3,0.4
	c-0.8,0.7-1.2,1.1-1.5,1.3c-0.4,0.3-0.8,0.5-1.2,0.7c-0.3,0.1-0.5,0.1-0.7,0.1c-0.2,0-0.3,0-0.4-0.1c-0.1-0.1-0.1-0.2-0.1-0.4
	c0-0.1,0-0.2,0.1-0.4l0.4-1.4c-0.6,0.7-1.2,1.3-2,1.8c-0.5,0.3-0.9,0.5-1.3,0.5c-0.4,0-0.7-0.1-0.9-0.4c-0.3-0.4-0.4-0.9-0.4-1.5
	c0-0.7,0.2-1.5,0.6-2.4c0.4-0.9,0.9-1.7,1.5-2.4c0.6-0.7,1.3-1.2,2-1.6c0.5-0.3,1.2-0.4,2.1-0.4c0.2,0,0.4,0,0.6,0L66.1,77.6z"/>
<path class="st0" d="M77.4,73.1c0.2,0,0.4,0.1,0.5,0.2c0.1,0.1,0.2,0.3,0.2,0.5c0,0.3-0.1,0.6-0.3,0.8c-0.2,0.2-0.4,0.3-0.7,0.3
	c-0.2,0-0.3-0.1-0.5-0.2c-0.1-0.1-0.2-0.3-0.2-0.6c0-0.3,0.1-0.6,0.3-0.8C76.9,73.2,77.2,73.1,77.4,73.1 M73.7,79.9l-0.4-0.4
	c0.6-0.8,1.2-1.3,1.7-1.6c0.5-0.3,1-0.5,1.3-0.5c0.2,0,0.4,0,0.5,0.1c0.1,0.1,0.2,0.2,0.2,0.4c0,0.2-0.2,1.1-0.6,2.5
	c-0.7,2.4-1,3.9-1,4.4c0,0.1,0,0.2,0.1,0.2c0,0.1,0.1,0.1,0.1,0.1c0.2,0,0.7-0.4,1.6-1.3l0.4,0.4c-0.9,0.9-1.5,1.5-1.9,1.7
	c-0.4,0.2-0.7,0.4-1,0.4c-0.2,0-0.4-0.1-0.5-0.2c-0.1-0.2-0.2-0.4-0.2-0.6c0-0.9,0.5-3,1.4-6.3c0-0.2,0.1-0.3,0.1-0.4
	c0-0.1-0.1-0.2-0.2-0.2c-0.1,0-0.3,0.1-0.4,0.2C74.6,79,74.2,79.3,73.7,79.9"/>
<path class="st0" d="M83.7,80.1l-0.3-0.4c0.8-0.8,1.5-1.4,2-1.7c0.5-0.3,0.9-0.4,1.3-0.4c0.1,0,0.2,0,0.3,0.1
	c0.1,0.1,0.1,0.1,0.1,0.2c0,0.1,0,0.2,0,0.3l-0.4,2c0.7-0.8,1.5-1.5,2.5-2.1c0.5-0.3,1-0.5,1.3-0.5c0.3,0,0.5,0.1,0.6,0.3
	c0.1,0.2,0.2,0.4,0.2,0.7c0,0.2,0,0.4-0.1,0.7c-0.1,0.4-0.4,1.4-0.8,2.9c-0.4,1.4-0.6,2.3-0.6,2.8c0,0.1,0,0.2,0.1,0.3
	c0,0.1,0.1,0.1,0.2,0.1c0.2,0,0.5-0.2,0.9-0.6c0.3-0.3,0.6-0.5,0.9-0.8l0.2,0.4c-0.6,0.7-1.2,1.2-1.9,1.7c-0.4,0.3-0.8,0.4-1,0.4
	c-0.3,0-0.4-0.1-0.6-0.3c-0.1-0.2-0.2-0.5-0.2-0.9c0-0.6,0.4-2.1,1.1-4.5c0.2-0.9,0.3-1.4,0.3-1.5c0-0.2-0.1-0.3-0.4-0.3
	c-0.3,0-0.6,0.1-1,0.4c-0.6,0.4-1.1,0.9-1.6,1.5c-0.3,0.4-0.5,0.9-0.7,1.8l-0.8,3.6h-1.5c0.3-1,0.5-2,0.7-2.9l0.9-3.9
	c0-0.2,0-0.3,0-0.3c0-0.2-0.1-0.3-0.2-0.3c-0.1,0-0.3,0.1-0.5,0.2C84.5,79.3,84.1,79.7,83.7,80.1"/>
<path class="st0" d="M102.3,73.1c0.2,0,0.4,0.1,0.5,0.2c0.1,0.1,0.2,0.3,0.2,0.5c0,0.3-0.1,0.6-0.3,0.8c-0.2,0.2-0.4,0.3-0.7,0.3
	c-0.2,0-0.3-0.1-0.5-0.2c-0.1-0.1-0.2-0.3-0.2-0.6c0-0.3,0.1-0.6,0.3-0.8C101.8,73.2,102,73.1,102.3,73.1 M98.5,79.9l-0.4-0.4
	c0.6-0.8,1.2-1.3,1.7-1.6c0.5-0.3,1-0.5,1.3-0.5c0.2,0,0.4,0,0.5,0.1c0.1,0.1,0.2,0.2,0.2,0.4c0,0.2-0.2,1.1-0.6,2.5
	c-0.7,2.4-1,3.9-1,4.4c0,0.1,0,0.2,0.1,0.2c0,0.1,0.1,0.1,0.1,0.1c0.2,0,0.7-0.4,1.6-1.3l0.4,0.4c-0.9,0.9-1.5,1.5-1.9,1.7
	c-0.4,0.2-0.7,0.4-1,0.4c-0.2,0-0.4-0.1-0.5-0.2c-0.1-0.2-0.2-0.4-0.2-0.6c0-0.9,0.5-3,1.4-6.3c0-0.2,0.1-0.3,0.1-0.4
	c0-0.1-0.1-0.2-0.2-0.2c-0.1,0-0.3,0.1-0.4,0.2C99.4,79,99.1,79.3,98.5,79.9"/>
<path class="st0" d="M108.6,80.1l-0.3-0.4c0.8-0.8,1.5-1.4,2-1.7c0.5-0.3,0.9-0.4,1.3-0.4c0.1,0,0.2,0,0.3,0.1
	c0.1,0.1,0.1,0.1,0.1,0.2c0,0.1,0,0.2-0.1,0.3l-0.4,2c0.7-0.8,1.5-1.5,2.5-2.1c0.5-0.3,1-0.5,1.3-0.5c0.3,0,0.5,0.1,0.6,0.3
	c0.1,0.2,0.2,0.4,0.2,0.7c0,0.2,0,0.4-0.1,0.7c-0.1,0.4-0.4,1.4-0.8,2.9c-0.4,1.4-0.6,2.3-0.6,2.8c0,0.1,0,0.2,0.1,0.3
	c0,0.1,0.1,0.1,0.2,0.1c0.2,0,0.5-0.2,0.9-0.6c0.3-0.3,0.6-0.5,0.9-0.8l0.2,0.4c-0.6,0.7-1.2,1.2-1.9,1.7c-0.4,0.3-0.8,0.4-1,0.4
	c-0.3,0-0.4-0.1-0.6-0.3c-0.1-0.2-0.2-0.5-0.2-0.9c0-0.6,0.4-2.1,1.1-4.5c0.2-0.9,0.3-1.4,0.3-1.5c0-0.2-0.1-0.3-0.4-0.3
	c-0.3,0-0.6,0.1-1,0.4c-0.6,0.4-1.1,0.9-1.6,1.5c-0.3,0.4-0.5,0.9-0.7,1.8l-0.8,3.6h-1.5c0.3-1,0.5-2,0.7-2.9l0.9-3.9
	c0-0.2,0-0.3,0-0.3c0-0.2-0.1-0.3-0.2-0.3c-0.1,0-0.3,0.1-0.5,0.2C109.3,79.3,108.9,79.7,108.6,80.1"/>
<path class="st0" d="M128.5,79.2c-0.3-0.1-0.6-0.1-0.9-0.1c-0.6,0-1.2,0.2-1.6,0.5s-0.8,0.9-1.2,1.7c-0.4,1.1-0.7,2.1-0.7,2.9
	c0,0.3,0.1,0.6,0.3,0.8c0.2,0.2,0.4,0.3,0.6,0.3c0.3,0,0.6-0.1,1-0.4c0.4-0.3,0.7-0.6,1-1c0.2-0.4,0.5-1.1,0.8-2.1L128.5,79.2z
	 M127.1,84.9c-0.5,0.4-1.3,1.1-2.6,2c-1.1,0.8-1.8,1.4-2.1,1.7c-0.3,0.4-0.4,0.7-0.4,1.1c0,0.4,0.2,0.7,0.5,1.1
	c0.3,0.3,0.7,0.5,1.2,0.5c0.5,0,0.9-0.1,1.3-0.3c0.4-0.2,0.8-0.6,1.1-1c0.3-0.4,0.5-0.9,0.7-1.5c0.1-0.6,0.2-1.3,0.2-2.2
	C127.1,86,127.1,85.6,127.1,84.9 M129.6,77.7l0.8-0.2c-0.5,1.6-0.9,3.2-1.3,4.8c-0.3,1.2-0.5,2.1-0.6,2.9c-0.1,0.4-0.1,0.9-0.1,1.5
	c0,1-0.1,1.8-0.3,2.4c-0.3,0.8-0.8,1.5-1.6,2c-0.8,0.5-1.7,0.8-2.7,0.8c-0.9,0-1.6-0.2-2.1-0.7c-0.5-0.4-0.8-0.9-0.8-1.5
	c0-0.6,0.2-1.1,0.6-1.6c0.3-0.4,1-0.8,1.9-1.3c0.5-0.3,1-0.5,1.4-0.8c-0.5,0.3-0.9,0.4-1.2,0.4c-0.2,0-0.5-0.1-0.7-0.4
	c-0.2-0.2-0.3-0.6-0.3-0.9c0-1.3,0.4-2.5,1.1-3.8c0.7-1.2,1.6-2.2,2.6-2.8c0.6-0.4,1.4-0.6,2.4-0.6c0.2,0,0.4,0,0.7,0L129.6,77.7z"
	/>
<path class="st0" d="M151.5,84l0.2,0.6c-1.6,1.3-2.9,1.9-4,1.9c-0.6,0-1-0.2-1.3-0.6c-0.3-0.4-0.4-1-0.4-1.6c0-1.1,0.3-2.2,0.8-3.3
	c0.6-1.1,1.2-2,2-2.6c0.6-0.5,1.3-0.7,2.1-0.7c0.5,0,0.9,0.1,1.1,0.3c0.3,0.2,0.4,0.4,0.4,0.7c0,0.2-0.1,0.4-0.2,0.5
	c-0.1,0.1-0.3,0.2-0.6,0.2c-0.2,0-0.5-0.1-0.9-0.3c-0.4-0.2-0.7-0.3-0.9-0.3c-0.3,0-0.6,0.2-1,0.5c-0.3,0.3-0.6,0.9-0.9,1.8
	c-0.3,0.9-0.4,1.7-0.4,2.6c0,0.6,0.1,1.1,0.4,1.5c0.2,0.3,0.4,0.4,0.8,0.4C149.6,85.4,150.5,85,151.5,84"/>
<path class="st0" d="M160,82.2c1.1-0.5,1.9-1,2.4-1.6c0.4-0.4,0.5-0.8,0.5-1.2c0-0.3-0.1-0.5-0.2-0.7c-0.1-0.2-0.3-0.3-0.6-0.3
	c-0.2,0-0.5,0.1-0.7,0.3c-0.3,0.3-0.6,0.6-0.8,1.1C160.4,80.7,160.2,81.4,160,82.2 M163.5,83.7l0.3,0.4c-1.6,1.6-3,2.4-4.1,2.4
	c-0.5,0-0.8-0.2-1.1-0.5c-0.2-0.3-0.4-0.8-0.4-1.6c0-1.5,0.4-2.9,1.3-4.3c1-1.6,2.1-2.5,3.4-2.5c0.5,0,0.8,0.1,1.1,0.4
	c0.2,0.2,0.4,0.6,0.4,1c0,0.4-0.1,0.9-0.4,1.3c-0.3,0.4-0.8,0.9-1.6,1.3c-0.4,0.2-1.2,0.6-2.4,1.2c-0.1,0.4-0.1,0.7-0.1,1
	c0,0.5,0.1,0.8,0.2,1c0.1,0.2,0.4,0.3,0.6,0.3c0.3,0,0.6-0.1,0.9-0.2C162,84.8,162.6,84.3,163.5,83.7"/>
<path class="st0" d="M170.9,80.1l-0.3-0.4c0.8-0.8,1.5-1.4,2-1.7c0.5-0.3,0.9-0.4,1.3-0.4c0.1,0,0.2,0,0.3,0.1
	c0.1,0.1,0.1,0.1,0.1,0.2c0,0.1,0,0.2-0.1,0.3l-0.4,2c0.7-0.8,1.5-1.5,2.5-2.1c0.5-0.3,1-0.5,1.3-0.5c0.3,0,0.5,0.1,0.6,0.3
	c0.1,0.2,0.2,0.4,0.2,0.7c0,0.2,0,0.4-0.1,0.7c-0.1,0.4-0.4,1.4-0.8,2.9c-0.4,1.4-0.6,2.3-0.6,2.8c0,0.1,0,0.2,0.1,0.3
	c0,0.1,0.1,0.1,0.2,0.1c0.2,0,0.5-0.2,0.9-0.6c0.3-0.3,0.6-0.5,0.9-0.8l0.2,0.4c-0.6,0.7-1.2,1.2-1.9,1.7c-0.4,0.3-0.8,0.4-1,0.4
	c-0.3,0-0.4-0.1-0.6-0.3c-0.1-0.2-0.2-0.5-0.2-0.9c0-0.6,0.4-2.1,1.1-4.5c0.2-0.9,0.3-1.4,0.3-1.5c0-0.2-0.1-0.3-0.4-0.3
	c-0.3,0-0.6,0.1-1,0.4c-0.6,0.4-1.1,0.9-1.6,1.5c-0.3,0.4-0.5,0.9-0.7,1.8l-0.8,3.6h-1.5c0.3-1,0.5-2,0.7-2.9l0.9-3.9
	c0-0.2,0-0.3,0-0.3c0-0.2-0.1-0.3-0.2-0.3c-0.1,0-0.3,0.1-0.5,0.2C171.6,79.3,171.3,79.7,170.9,80.1"/>
<path class="st0" d="M188.1,76.2l1.5-0.6l-0.7,2.8h2l-0.2,0.7h-2l-0.8,3.4c-0.3,1-0.4,1.7-0.4,2.1c0,0.2,0,0.3,0.1,0.4
	s0.2,0.1,0.3,0.1c0.2,0,0.5-0.1,0.9-0.4c0.5-0.3,1-0.7,1.5-1.1l0.4,0.5c-1.4,1.1-2.3,1.8-2.8,2c-0.5,0.2-0.8,0.4-1.1,0.4
	c-0.2,0-0.4-0.1-0.6-0.3s-0.2-0.5-0.2-0.9c0-0.5,0.1-1.2,0.4-2.2l1-4h-1.5l0.2-0.7h1.5L188.1,76.2z"/>
<path class="st0" d="M209.7,81.2c1.1-0.5,1.9-1,2.4-1.6c0.4-0.4,0.5-0.8,0.5-1.2c0-0.3-0.1-0.5-0.2-0.7c-0.1-0.2-0.3-0.3-0.6-0.3
	c-0.2,0-0.5,0.1-0.7,0.3c-0.3,0.3-0.6,0.6-0.8,1.1C210.1,79.7,209.9,80.4,209.7,81.2 M213.2,82.7l0.3,0.4c-1.6,1.6-3,2.4-4.1,2.4
	c-0.5,0-0.8-0.2-1.1-0.5c-0.2-0.3-0.4-0.8-0.4-1.6c0-1.5,0.4-2.9,1.3-4.3c1-1.6,2.1-2.4,3.4-2.4c0.5,0,0.8,0.1,1.1,0.4
	c0.2,0.2,0.4,0.6,0.4,1c0,0.4-0.1,0.9-0.4,1.3c-0.3,0.4-0.8,0.9-1.6,1.3c-0.4,0.2-1.2,0.6-2.4,1.2c-0.1,0.4-0.1,0.7-0.1,1
	c0,0.5,0.1,0.8,0.2,1c0.1,0.2,0.4,0.3,0.6,0.3c0.3,0,0.6-0.1,0.9-0.2C211.7,83.8,212.4,83.3,213.2,82.7"/>
<path class="st0" d="M199.1,85.6h-1.5l0.7-2.7c0.3-1.3,0.6-2.6,0.9-3.8c0.1-0.3,0.1-0.5,0.1-0.6c0-0.2-0.1-0.2-0.2-0.2
	c-0.1,0-0.2,0.1-0.5,0.2c-0.2,0.1-0.6,0.5-1.1,1l-0.3-0.4c0.6-0.7,1.3-1.2,1.9-1.6c0.6-0.3,1.1-0.5,1.4-0.5c0.1,0,0.2,0,0.3,0.1
	c0.1,0.1,0.1,0.1,0.1,0.2c0,0.1,0,0.3-0.1,0.7l-0.4,1.8c0.7-1.1,1.4-2,2.3-2.8c0.4-0.4,0.7-0.6,1-0.6c0.2,0,0.4,0.1,0.5,0.2
	c0.1,0.1,0.2,0.3,0.2,0.5c0,0.2-0.1,0.3-0.2,0.5c-0.1,0.1-0.4,0.3-1,0.5c-0.5,0.2-0.9,0.4-1.2,0.6c-0.3,0.2-0.6,0.6-1,1.1
	c-0.4,0.5-0.6,0.9-0.8,1.3c-0.1,0.4-0.4,1.2-0.7,2.5L199.1,85.6z"/>
</svg>
