<?xml version="1.0" encoding="utf-8"?>
<!-- Generator: Adobe Illustrator 20.0.0, SVG Export Plug-In . SVG Version: 6.00 Build 0)  -->
<svg version="1.1" id="Layer_1" xmlns="http://www.w3.org/2000/svg" xmlns:xlink="http://www.w3.org/1999/xlink" x="0px" y="0px"
	 viewBox="0 0 60 39.4" style="enable-background:new 0 0 60 39.4;" xml:space="preserve">
<style type="text/css">
	.st0{fill:#0078A0;}
</style>
<path class="st0" d="M58.3,28c-1.2,1.3-2.8,2-4.5,2h0c-1.7,0-3.3-0.7-4.5-2c-0.2-0.2-0.5-0.3-0.7-0.3h0c-0.3,0-0.5,0.1-0.7,0.3
	c-1.2,1.3-2.8,2-4.5,2c-1.7,0-3.3-0.7-4.5-2c-0.2-0.2-0.5-0.3-0.7-0.3c-0.3,0-0.5,0.1-0.7,0.3c-1.2,1.3-2.8,2-4.5,2
	c-1.7,0-3.3-0.7-4.5-2c-0.2-0.2-0.5-0.3-0.7-0.3c-0.3,0-0.5,0.1-0.7,0.3c-1.2,1.3-2.8,2-4.5,2c-1.7,0-3.3-0.7-4.5-2
	c-0.2-0.2-0.5-0.3-0.7-0.3s-0.5,0.1-0.7,0.3c-1.2,1.3-2.8,2-4.5,2c-1.7,0-3.3-0.7-4.5-2c-0.2-0.2-0.5-0.3-0.7-0.3h0
	c-0.3,0-0.5,0.1-0.7,0.3c-1.2,1.3-2.8,2-4.5,2c-0.6,0-1,0.5-1,1s0.5,1,1,1c2,0,3.8-0.7,5.3-1.9c1.5,1.3,3.3,1.9,5.3,1.9
	c2,0,3.8-0.7,5.3-1.9c1.5,1.3,3.3,1.9,5.3,1.9c2,0,3.8-0.7,5.3-1.9c1.5,1.3,3.3,1.9,5.3,1.9c2,0,3.8-0.7,5.3-1.9
	c1.5,1.3,3.3,1.9,5.3,1.9c2,0,3.8-0.7,5.3-1.9c1.5,1.3,3.3,1.9,5.3,1.9h0c2.3,0,4.4-0.9,6-2.6c0.4-0.4,0.4-1.1,0-1.5
	C59.3,27.6,58.6,27.6,58.3,28"/>
<path class="st0" d="M58.3,35.3c-1.2,1.3-2.8,2-4.5,2h0c-1.7,0-3.3-0.7-4.5-2C49,35.1,48.7,35,48.5,35h0c-0.3,0-0.5,0.1-0.7,0.3
	c-1.2,1.3-2.8,2-4.5,2c-1.7,0-3.3-0.7-4.5-2c-0.2-0.2-0.5-0.3-0.7-0.3c-0.3,0-0.5,0.1-0.7,0.3c-1.2,1.3-2.8,2-4.5,2
	c-1.7,0-3.3-0.7-4.5-2c-0.2-0.2-0.5-0.3-0.7-0.3c-0.3,0-0.5,0.1-0.7,0.3c-1.2,1.3-2.8,2-4.5,2c-1.7,0-3.3-0.7-4.5-2
	c-0.2-0.2-0.5-0.3-0.7-0.3c-0.3,0-0.5,0.1-0.7,0.3c-1.2,1.3-2.8,2-4.5,2c-1.7,0-3.3-0.7-4.5-2C6.8,35.1,6.6,35,6.3,35
	c-0.3,0-0.5,0.1-0.7,0.3c-1.2,1.3-2.8,2-4.5,2c-0.6,0-1,0.5-1,1s0.5,1,1,1c2,0,3.8-0.7,5.3-1.9c1.5,1.3,3.3,1.9,5.3,1.9
	c2,0,3.8-0.7,5.3-1.9c1.5,1.3,3.3,1.9,5.3,1.9c2,0,3.8-0.7,5.3-1.9c1.5,1.3,3.3,1.9,5.3,1.9s3.8-0.7,5.3-1.9
	c1.5,1.3,3.3,1.9,5.3,1.9c2,0,3.8-0.7,5.3-1.9c1.5,1.3,3.3,1.9,5.3,1.9h0c2.3,0,4.4-0.9,6-2.6c0.4-0.4,0.4-1.1,0-1.5
	C59.3,34.9,58.6,34.9,58.3,35.3"/>
<path class="st0" d="M40.3,7.4c0.3-0.5,0.5-1.1,0.9-1.6c0.3-0.5,0.2-1.1-0.3-1.4c-0.5-0.3-1.1-0.2-1.4,0.3c-0.3,0.6-0.7,1.1-1,1.7
	c-0.2,0.5,0,1.1,0.5,1.4c0.1,0.1,0.3,0.1,0.5,0.1C39.8,7.9,40.2,7.7,40.3,7.4"/>
<path class="st0" d="M38.5,9c-0.5-0.2-1.1,0.2-1.2,0.7c-0.5,1.8-0.8,3.7-0.8,5.6c0,0.3,0,0.6,0,0.9c0,0.8,0.1,1.6,0.2,2.3
	c0.1,0.5,0.5,0.9,1,0.9c0.1,0,0.1,0,0.2,0c0.6-0.1,0.9-0.6,0.8-1.2c-0.1-0.7-0.2-1.4-0.2-2.1c0-0.3,0-0.5,0-0.8c0-1.7,0.2-3.4,0.7-5
	C39.4,9.7,39.1,9.2,38.5,9"/>
<path class="st0" d="M37.9,20.4c-0.3,0-0.5,0.1-0.7,0.3c-1.2,1.3-2.8,2-4.5,2c-1.7,0-3.3-0.7-4.5-2c-0.2-0.2-0.5-0.3-0.7-0.3
	c-0.3,0-0.5,0.1-0.7,0.3c-1.2,1.3-2.8,2-4.5,2c-1.6,0-3-0.6-4.2-1.6c0.6-1.6,1.4-3.1,2.3-4.6c2.1-3.4,4.7-6.3,7.9-8.6
	c4.4-3.3,9.5-5.3,14.9-5.8c0,0,0,0,0,0c0,0,0,0,0,0c0.7-0.1,1,0.5,1,0.6c0.1,0.2,0.3,0.7-0.1,1.2c-1.2,1.4-2.2,3.1-2.9,4.8
	c-0.8,2.1-1.3,4.3-1.3,6.6c0,0.3,0,0.6,0,0.8c0.1,2.2,0.6,4.3,1.5,6.3c-1-0.3-1.9-0.9-2.7-1.7C38.4,20.5,38.2,20.4,37.9,20.4
	 M48.4,15.6c1.5,1.3,3.3,1.9,5.3,1.9h0c2.3,0,4.4-0.9,6-2.6c0.4-0.4,0.4-1.1,0-1.5s-1-0.4-1.4,0c-1.2,1.3-2.8,2-4.5,2h0
	c-1.7,0-3.3-0.7-4.5-2c-0.2-0.2-0.5-0.3-0.7-0.3c-0.3,0-0.5,0.1-0.7,0.3c-1.2,1.3-2.8,2-4.5,2c-0.5,0-0.9-0.1-1.4-0.2
	c0-1.7,0.3-3.4,0.8-5.1c0.2,0,0.3,0,0.5,0c2,0,3.8-0.7,5.3-1.9c1.5,1.3,3.3,1.9,5.3,1.9h0c2.3,0,4.4-0.9,6-2.6
	c0.4-0.4,0.4-1.1,0-1.5c-0.4-0.4-1-0.4-1.4,0c-1.2,1.3-2.8,2-4.5,2h0c-1.7,0-3.3-0.7-4.5-2C49,6,48.7,5.8,48.4,5.8
	c-0.3,0-0.5,0.1-0.7,0.3c-1.1,1.2-2.6,1.9-4.2,2c0.5-1,1.2-2,1.9-2.9c0.8-1,1-2.3,0.4-3.5c-0.6-1.2-1.7-1.8-3-1.7c0,0,0,0,0,0
	c0,0,0,0,0,0c-5.7,0.5-11.2,2.7-15.9,6.2c-0.3,0.2-1.7,1.1-1.8,1.2c-0.9,0.5-2,0.8-3,0.8c-1.7,0-3.3-0.7-4.5-2
	c-0.2-0.2-0.5-0.3-0.7-0.3c-0.3,0-0.5,0.1-0.7,0.3c-1.2,1.3-2.8,2-4.5,2c-1.7,0-3.3-0.7-4.5-2C6.8,6,6.6,5.8,6.3,5.8
	C6,5.8,5.7,6,5.5,6.2c-1.2,1.3-2.8,2-4.5,2c-0.6,0-1,0.5-1,1s0.5,1,1,1c2,0,3.8-0.7,5.3-1.9c1.5,1.3,3.3,1.9,5.3,1.9
	c2,0,3.8-0.7,5.3-1.9c1.5,1.3,3.3,1.9,5.3,1.9c0.1,0,0.2,0,0.3,0c-1.2,1.4-2.4,2.8-3.4,4.4c-0.5-0.3-1-0.7-1.5-1.2
	c-0.2-0.2-0.5-0.3-0.7-0.3c-0.3,0-0.5,0.1-0.7,0.3c-1.2,1.3-2.8,2-4.5,2c-1.7,0-3.3-0.7-4.5-2c-0.2-0.2-0.5-0.3-0.7-0.3
	c-0.3,0-0.5,0.1-0.7,0.3c-1.2,1.3-2.8,2-4.5,2c-0.6,0-1,0.5-1,1c0,0.6,0.5,1,1,1c2,0,3.8-0.7,5.3-1.9c1.5,1.3,3.3,1.9,5.3,1.9
	c2,0,3.8-0.7,5.3-1.9c0.4,0.3,0.7,0.6,1.1,0.8c-0.9,1.5-1.6,3.1-2.2,4.7c-1.2,1.1-2.6,1.7-4.2,1.7c-1.7,0-3.3-0.7-4.5-2
	c-0.2-0.2-0.5-0.3-0.7-0.3c-0.3,0-0.5,0.1-0.7,0.3c-1.2,1.3-2.8,2-4.5,2c-0.6,0-1,0.5-1,1s0.5,1,1,1c2,0,3.8-0.7,5.3-1.9
	c1.5,1.3,3.3,1.9,5.3,1.9c2,0,3.8-0.7,5.3-1.9c1.5,1.3,3.3,1.9,5.3,1.9c2,0,3.8-0.7,5.3-1.9c1.5,1.3,3.3,1.9,5.3,1.9
	c2,0,3.8-0.7,5.3-1.9c1.5,1.3,3.3,1.9,5.3,1.9c2,0,3.8-0.7,5.3-1.9c1.5,1.3,3.3,1.9,5.3,1.9h0c2.3,0,4.4-0.9,6-2.6
	c0.4-0.4,0.4-1.1,0-1.5c-0.4-0.4-1-0.4-1.4,0c-1.2,1.3-2.8,2-4.5,2c-1.7,0-3.3-0.7-4.5-2c-0.2-0.2-0.5-0.3-0.7-0.3
	c-0.3,0-0.5,0.1-0.7,0.3c-1.1,1.2-2.5,1.9-4,2c-0.9-1.7-1.5-3.4-1.7-5.3c0.4,0.1,0.8,0.1,1.2,0.1C45.1,17.5,47,16.8,48.4,15.6"/>
</svg>
