<?xml version="1.0" encoding="utf-8"?>
<!-- Generator: Adobe Illustrator 20.0.0, SVG Export Plug-In . SVG Version: 6.00 Build 0)  -->
<svg version="1.1" id="Layer_1" xmlns="http://www.w3.org/2000/svg" xmlns:xlink="http://www.w3.org/1999/xlink" x="0px" y="0px"
	 viewBox="0 0 60 29.1" style="enable-background:new 0 0 60 29.1;" xml:space="preserve">
<style type="text/css">
	.st0{fill:#0078A0;}
</style>
<path class="st0" d="M55.3,17.3h-1.9c0.3-1.6,0.3-3.2,0.1-4.8c0-0.3-0.1-0.6-0.2-0.9h1.5v3.5c0,0.5,0.4,1,0.9,1c0.5,0,0.9-0.4,0.9-1
	v-3c0.2,0.1,0.3,0.2,0.5,0.4c0.5,0.5,0.8,1.3,0.8,2C58.1,16.1,56.8,17.3,55.3,17.3 M50.4,20.3c-2.1,3.9-6,6.4-10,6.4
	c-2.2,0-4.7-1.2-6.5-3c0.5-0.5,1-1,1.5-1.4c0.9-0.8,1.6-1.5,2.2-2c0,0,0,0,0,0c0.6,0.6,1.3,1.1,2.1,1.3v2.2c0,0.5,0.4,1,0.9,1
	c0.5,0,0.9-0.4,0.9-1v-2c0.1,0,0.2,0,0.2,0c1-0.2,1.9-0.6,2.6-1.3l1.3,1.3c0.2,0.2,0.4,0.3,0.7,0.3s0.5-0.1,0.7-0.3
	c0.4-0.4,0.4-1,0-1.4l-1.5-1.5c0.2-0.3,0.3-0.7,0.5-1.1c0.3-0.8,0.4-1.5,0.4-2.3h2.8c0.5,0,0.9-0.4,0.9-1s-0.4-1-0.9-1h-3
	c-0.3-1.4-0.9-2.8-1.9-4c-1.2-1.5-3.1-2.4-5.4-2.4c-3.1,0-5.1,1-6.5,2c-1-1.5-2.1-3.3-3-4.5c1-0.7,2.1-1.2,3.1-1.7l1.5,3
	c0.2,0.3,0.5,0.5,0.8,0.5c0.1,0,0.3,0,0.4-0.1c0.5-0.2,0.7-0.8,0.4-1.3l-1.4-2.8c1.4-0.4,2.8-0.6,4.3-0.6c0.2,0,0.4,0,0.5,0v3.4
	c0,0.5,0.4,1,0.9,1c0.5,0,0.9-0.4,0.9-1V2.1c1.8,0.3,3.5,1,5,2L44.6,6c-0.4,0.4-0.3,1,0,1.4c0.2,0.2,0.4,0.3,0.7,0.3
	c0.2,0,0.5-0.1,0.7-0.3l1.9-2c0.2,0.2,0.4,0.4,0.6,0.6C52,9.7,52.8,15.8,50.4,20.3 M41.7,19.9c-0.7,0.1-1.4-0.1-2.1-0.5
	c0.4-0.1,0.8-0.1,1.2-0.1H43C42.6,19.6,42.2,19.8,41.7,19.9 M20.5,27.1c-0.1,0-0.1,0-0.2,0c-2.6,0-5.1-0.8-7.2-2.3
	c-2-1.4-3.5-3.3-4.4-5.5h6.7c0.1,0.1,0.2,0.2,0.3,0.3l-2.3,2.3c-0.4,0.4-0.4,1,0,1.4c0.2,0.2,0.4,0.3,0.7,0.3s0.5-0.1,0.7-0.3
	l2.5-2.6c0.7,0.3,1.4,0.5,2.1,0.6v3c0,0.5,0.4,1,0.9,1c0.5,0,0.9-0.4,0.9-1v-3c1.1-0.1,2-0.3,2.8-0.5l1.8,2.9
	c0.2,0.3,0.5,0.4,0.8,0.4c0.2,0,0.4,0,0.5-0.2c0.4-0.3,0.6-0.9,0.3-1.3l-1.6-2.6c0.9-0.5,1.7-1,2.4-1.6c0.2-0.2,0.4-0.3,0.6-0.5
	l1.9,2.5c0.2,0.2,0.5,0.4,0.8,0.4c0.2,0,0.4-0.1,0.6-0.2c0.4-0.3,0.5-0.9,0.2-1.3l-2-2.7c1-0.9,2.1-2,3.3-2.8l2,2.7
	c0.2,0.2,0.5,0.4,0.8,0.4c0.2,0,0.4-0.1,0.6-0.2c0.4-0.3,0.5-0.9,0.2-1.3l-1.9-2.5c1.6-0.8,3.2-1.2,5-1.3v3.5c0,0.5,0.4,1,0.9,1
	c0.5,0,0.9-0.4,0.9-1v-3.5h1.3c0.9,1.4,1.5,3.3,0.8,5.6c0,0,0,0.1,0,0.1h-3.5c-1.6,0-2.9,0.4-4.2,1.5c-0.7,0.6-1.5,1.2-2.4,2.1
	c-0.9,0.9-2,1.9-3.2,2.8C27.9,26,24.6,27.1,20.5,27.1 M4.7,17.4c-1.6,0-2.8-1.3-2.8-2.9s1.3-2.9,2.8-2.9h0.1v3.4c0,0.5,0.4,1,0.9,1
	c0.5,0,0.9-0.4,0.9-1v-3.4h4.2v3.4c0,0.5,0.4,1,0.9,1c0.5,0,0.9-0.4,0.9-1v-3.4h3.5h0.7v3.4c0,0.5,0.4,1,0.9,1c0.5,0,0.9-0.4,0.9-1
	v-3.4c1.2,0,2.3-0.2,3.7-1.2c0.7,0.9,1.4,2.1,2.2,3.5c0.2,0.3,0.3,0.6,0.5,0.9c-2,1.4-4,2.6-6.7,2.6h-2.5h-10H4.7z M18.6,9.8h-1.2
	c0.6-0.6,1.5-1,2.6-1c0.4,0,0.8,0.1,1.1,0.3C20.3,9.7,19.6,9.8,18.6,9.8 M20.3,19.5c-0.4,0-0.8,0-1.2-0.1c3-0.1,5.2-1.4,7.2-2.8
	c0.2,0.3,0.3,0.6,0.5,0.8C25.2,18.6,23.4,19.5,20.3,19.5 M40.8,9.7c-2.5,0-4.7,0.6-6.8,1.7c-0.1-0.2-0.2-0.3-0.3-0.5
	c1.2-0.9,2.8-1.7,5.5-1.7c0.9,0,1.7,0.2,2.4,0.5H40.8z M12.2,4.9l2,2c0.2,0.2,0.4,0.3,0.7,0.3s0.5-0.1,0.7-0.3c0.4-0.4,0.4-1,0-1.4
	l-1.8-1.8c1.6-1,3.4-1.6,5.4-1.8v2.9c0,0.5,0.4,1,0.9,1c0.5,0,0.9-0.4,0.9-1V2c1.9,0.1,3.5,0.7,4.9,1.7l-1.9,1.9
	c-0.4,0.4-0.4,1,0,1.4c0.2,0.2,0.4,0.3,0.7,0.3s0.5-0.1,0.7-0.3l2-2c0,0,0.1,0.1,0.1,0.1l0,0c0,0,0,0,0,0c0.7,0.7,1.8,2.5,2.9,4.2
	L27.9,11c-0.4,0.3-0.6,0.9-0.3,1.3c0.2,0.3,0.5,0.4,0.8,0.4c0.2,0,0.4-0.1,0.5-0.2l2.5-1.7c0.4,0.6,0.7,1.1,0.9,1.5
	c-1.3,0.9-2.4,2-3.4,2.9l0,0c-0.3,0.2-0.5,0.5-0.8,0.7c-0.3-0.5-0.7-1.1-1.1-1.8c-0.2-0.4-0.5-0.8-0.7-1.2c-2-3.4-3.6-6.1-6.4-6.1
	c-2.2,0-4.1,1.1-5,2.9H8.6C9.4,7.9,10.6,6.2,12.2,4.9 M58.6,11.1c-0.9-0.9-2.1-1.4-3.3-1.4h-2.4c-0.7-1.9-1.7-3.7-3-5.1
	c-0.5-0.5-0.9-0.9-1.4-1.4c0,0,0,0,0,0C45.8,1.1,42.6,0,39.2,0c-0.1,0-0.2,0-0.3,0c-2,0-3.9,0.4-5.8,1c-0.1,0-0.2,0-0.3,0.1
	c0,0,0,0,0,0c-1.5,0.5-2.9,1.3-4.4,2.2c-2.2-2.2-4.9-3.2-8.3-3.2c0,0,0,0-0.1,0c-3.1,0-5.9,1-8.3,2.7c0,0-0.1,0-0.1,0.1
	c-2.3,1.7-4,4-5,6.8c0,0,0,0.1,0,0.1H4.7C2.1,9.8,0,11.9,0,14.6s2.1,4.8,4.7,4.8h1.9c1,2.9,2.8,5.3,5.3,7c2.5,1.7,5.3,2.7,8.3,2.7
	c0.1,0,0.2,0,0.2,0c4.4-0.1,8.2-1.3,11.6-3.8c0.1-0.1,0.3-0.2,0.4-0.3c2.1,2.2,5.2,3.7,7.9,3.7c4.7,0,9.2-2.9,11.6-7.4
	c0.3-0.6,0.6-1.3,0.9-2h2.4c2.6,0,4.7-2.1,4.7-4.8C60,13.2,59.5,12,58.6,11.1"/>
</svg>
