<?xml version="1.0" encoding="utf-8"?>
<!-- Generator: Adobe Illustrator 20.0.0, SVG Export Plug-In . SVG Version: 6.00 Build 0)  -->
<svg version="1.1" id="Layer_1" xmlns="http://www.w3.org/2000/svg" xmlns:xlink="http://www.w3.org/1999/xlink" x="0px" y="0px"
	 viewBox="0 0 61 29.6" style="enable-background:new 0 0 61 29.6;" xml:space="preserve">
<style type="text/css">
	.st0{fill:#FFFFFF;}
</style>
<path class="st0" d="M47.7,24c-0.5,0-1.1-0.1-1.6-0.2l8.9-8.7c0.1,0.5,0.2,1,0.2,1.5C55.2,20.7,51.9,24,47.7,24 M40.4,18.5
	c-0.1-0.6-0.2-1.2-0.2-1.8c0-4,3.4-7.3,7.5-7.3c0.5,0,1,0,1.5,0.1L40.4,18.5z M55.2,11.2c-0.3-0.4-0.9-0.5-1.3-0.2
	c-0.4,0.3-0.5,0.9-0.2,1.3c0.2,0.3,0.4,0.6,0.6,1l-10.2,9.9c-1.2-0.6-2.2-1.6-2.9-2.8L51.7,9.7c0.2-0.2,0.3-0.5,0.2-0.8
	c-0.1-0.3-0.3-0.5-0.6-0.7c-1.1-0.5-2.4-0.7-3.6-0.7c-5.2,0-9.4,4.1-9.4,9.2c0,1.4,0.3,2.7,0.9,3.8c0,0,0,0.1,0.1,0.1
	c0.9,1.9,2.5,3.4,4.5,4.3c0.2,0.1,0.4,0.2,0.6,0.2c1.1,0.4,2.2,0.6,3.5,0.6c5.2,0,9.4-4.1,9.4-9.2C57.1,14.7,56.5,12.8,55.2,11.2
	 M13.3,24c-0.5,0-1.1-0.1-1.6-0.2l8.9-8.7c0.1,0.5,0.2,1,0.2,1.5C20.8,20.7,17.4,24,13.3,24 M6,18.5c-0.1-0.6-0.2-1.2-0.2-1.8
	c0-4,3.4-7.3,7.5-7.3c0.5,0,1,0,1.5,0.1L6,18.5z M20.8,11.2c-0.3-0.4-0.9-0.5-1.3-0.2c-0.4,0.3-0.5,0.9-0.2,1.3
	c0.2,0.3,0.4,0.6,0.6,1L9.7,23.1c-1.2-0.6-2.2-1.6-2.9-2.8L17.2,9.7c0.2-0.2,0.3-0.5,0.2-0.8c-0.1-0.3-0.3-0.5-0.6-0.7
	c-1.1-0.5-2.4-0.7-3.6-0.7c-5.2,0-9.4,4.1-9.4,9.2c0,1.4,0.3,2.7,0.9,3.8c0,0,0,0.1,0.1,0.1c0.9,1.9,2.5,3.4,4.5,4.3
	c0.2,0.1,0.4,0.2,0.6,0.2c1.1,0.4,2.2,0.6,3.5,0.6c5.2,0,9.4-4.1,9.4-9.2C22.7,14.7,22,12.8,20.8,11.2 M47.7,27.7
	c-6.3,0-11.4-5-11.4-11s5.1-11,11.4-11s11.4,5,11.4,11S54,27.7,47.7,27.7 M33.1,19.1c-0.9,0-1.6-0.7-1.6-1.6v-6.2
	c2.3-0.4,4.1-2,4.7-4.1l1.6,1c-2.1,2.3-3.3,5.2-3.3,8.5c0,0.8,0.1,1.6,0.2,2.4L33.1,19.1L33.1,19.1z M27.9,19.1h-1.6
	c0.1-0.8,0.2-1.6,0.2-2.4c0-3.3-1.2-6.2-3.3-8.5l1.6-1c0.6,2.1,2.4,3.7,4.7,4.1v6.2C29.5,18.4,28.8,19.1,27.9,19.1 M13.3,27.7
	c-6.3,0-11.4-5-11.4-11s5.1-11,11.4-11c6.3,0,11.4,5,11.4,11S19.5,27.7,13.3,27.7 M29.5,2v1.6c0,0.5,0.4,0.9,1,0.9
	c0.5,0,1-0.4,1-0.9V2c1.7,0.4,3,1.9,3,3.7c0,1.8-1.3,3.3-3,3.7V8c0-0.5-0.4-0.9-1-0.9c-0.5,0-1,0.4-1,0.9v1.4c-1.7-0.4-3-1.9-3-3.7
	C26.6,3.9,27.8,2.4,29.5,2 M47.7,3.8c-3.3,0-6.3,1.1-8.6,3.1l-2.8-1.7C36.1,2.3,33.5,0,30.5,0c-3,0-5.6,2.3-5.8,5.2l-2.8,1.7
	c-2.3-1.9-5.3-3.1-8.6-3.1C6,3.8,0,9.6,0,16.7s6,12.9,13.3,12.9c5.8,0,10.7-3.6,12.5-8.7h2.1c1,0,1.9-0.4,2.6-1.1
	c0.6,0.7,1.5,1.1,2.6,1.1h2.1c1.8,5,6.7,8.7,12.5,8.7C55,29.6,61,23.8,61,16.7S55,3.8,47.7,3.8"/>
</svg>
