<?xml version="1.0" encoding="utf-8"?>
<!-- Generator: Adobe Illustrator 20.0.0, SVG Export Plug-In . SVG Version: 6.00 Build 0)  -->
<svg version="1.1" id="Layer_1" xmlns="http://www.w3.org/2000/svg" xmlns:xlink="http://www.w3.org/1999/xlink" x="0px" y="0px"
	 viewBox="0 0 60 24" style="enable-background:new 0 0 60 24;" xml:space="preserve">
<style type="text/css">
	.st0{fill:#566573;}
</style>
<path class="st0" d="M54,19.1c2.2-1.6,3.5-4.2,3.5-7.1S56.1,6.5,54,4.9L54,19.1 M51.5,2.7h-7.7v18.6h7.7L51.5,2.7z M30.7,19h10.6V5
	H30.7V19z M17.5,16h10.6V8H17.5V16z M8.1,13.8h7v-3.6h-7V13.8z M5.6,8H2.5V16h3.1V8z M60,12c0,4.4-2.4,8.3-6,10.1v0.5
	c0,0.7-0.6,1.3-1.2,1.3H42.6c-0.7,0-1.2-0.6-1.2-1.3v-1H29.4c-0.7,0-1.2-0.6-1.2-1.3v-1.6H16.3c-0.7,0-1.2-0.6-1.2-1.3v-0.9h-7v0.9
	c0,0.7-0.6,1.3-1.2,1.3H1.2c-0.7,0-1.2-0.6-1.2-1.3L0,6.6c0-0.7,0.6-1.3,1.2-1.3h5.6c0.7,0,1.2,0.6,1.2,1.3v0.9h7V6.6
	c0-0.7,0.6-1.3,1.2-1.3h11.9V3.6c0-0.7,0.6-1.3,1.2-1.3h11.9v-1c0-0.7,0.6-1.3,1.2-1.3l10.2,0C53.4,0,54,0.6,54,1.3v0.5
	C57.6,3.7,60,7.6,60,12"/>
</svg>
