<?xml version="1.0" encoding="utf-8"?>
<!-- Generator: Adobe Illustrator 20.0.0, SVG Export Plug-In . SVG Version: 6.00 Build 0)  -->
<svg version="1.1" id="Layer_1" xmlns="http://www.w3.org/2000/svg" xmlns:xlink="http://www.w3.org/1999/xlink" x="0px" y="0px"
	 viewBox="0 0 60 24" style="enable-background:new 0 0 60 24;" xml:space="preserve">
<style type="text/css">
	.st0{fill:#566573;}
</style>
<path class="st0" d="M6,19.1V4.9C3.9,6.5,2.5,9.1,2.5,12S3.9,17.5,6,19.1 M8.5,21.3h7.7V2.7H8.5V21.3z M29.3,5H18.7v14h10.6V5z
	 M42.5,8H31.8V16h10.6V8z M51.9,10.2h-7v3.6h7V10.2z M54.4,16h3.1V8h-3.1V16z M0,12C0,7.6,2.4,3.7,6,1.9V1.3C6,0.6,6.6,0,7.3,0h10.2
	c0.7,0,1.2,0.6,1.2,1.3v1h11.9c0.7,0,1.2,0.6,1.2,1.3v1.6h11.9c0.7,0,1.2,0.6,1.2,1.3v0.9h7V6.6c0-0.7,0.6-1.3,1.2-1.3h5.6
	c0.7,0,1.2,0.6,1.2,1.3v10.7c0,0.7-0.6,1.3-1.2,1.3h-5.6c-0.7,0-1.2-0.6-1.2-1.3v-0.9h-7v0.9c0,0.7-0.6,1.3-1.2,1.3H31.8v1.6
	c0,0.7-0.6,1.3-1.2,1.3H18.7v1c0,0.7-0.6,1.3-1.2,1.3H7.3C6.6,24,6,23.4,6,22.7v-0.5C2.4,20.3,0,16.4,0,12"/>
</svg>
