<?xml version="1.0" encoding="utf-8"?>
<!-- Generator: Adobe Illustrator 20.0.0, SVG Export Plug-In . SVG Version: 6.00 Build 0)  -->
<svg version="1.1" id="Layer_1" xmlns="http://www.w3.org/2000/svg" xmlns:xlink="http://www.w3.org/1999/xlink" x="0px" y="0px"
	 viewBox="0 0 30 15" style="enable-background:new 0 0 30 15;" xml:space="preserve">
<style type="text/css">
	.st0{fill:#FFFFFF;}
</style>
<path class="st0" d="M6.7,9.8h7.9h5.7H30c0,0-3.2-7-7.6-9.2c-4.4-2.1-2.1,1.4-2.1,1.4L20,2.5l-1.3-1.2h-1.9v0.9h1.6l1,1l-2.7,3.7
	c-3.9-0.5-9.6-1.6-11-4.1C3.6-1,4.9,6.3,5.1,7.1H1.7L0,9.8h4.9L6.7,9.8z M0,10.8h30c0,0-0.7,4.2-2.3,4.2h-24C0.9,15,0,10.8,0,10.8"
	/>
</svg>
