<?xml version="1.0" encoding="utf-8"?>
<!-- Generator: Adobe Illustrator 20.0.0, SVG Export Plug-In . SVG Version: 6.00 Build 0)  -->
<svg version="1.1" id="Layer_1" xmlns="http://www.w3.org/2000/svg" xmlns:xlink="http://www.w3.org/1999/xlink" x="0px" y="0px"
	 viewBox="0 0 40 46" style="enable-background:new 0 0 40 46;" xml:space="preserve">
<style type="text/css">
	.st0{fill:#0078A0;}
</style>
<path class="st0" d="M26.5,44c-0.3,0.2-0.5,0.4-1,0.4s-0.7-0.2-1-0.4c-0.4-0.3-0.9-0.6-1.7-0.6c-0.9,0-1.4,0.4-1.7,0.6
	c-0.3,0.2-0.5,0.4-1,0.4s-0.7-0.2-1-0.4c-0.4-0.3-0.9-0.6-1.7-0.6c-0.9,0-1.4,0.4-1.7,0.6c-0.3,0.2-0.5,0.4-1,0.4s-0.7-0.2-1-0.4
	c-0.3-0.2-0.6-0.5-1.1-0.6l0.3-2.3h14.7l0.3,2.3C27.2,43.6,26.8,43.8,26.5,44 M21.9,17.5L15.8,20l0.1-2.5H21.9z M14.5,13.1h11.2V16
	H14.5V13.1z M16.6,8.8c0-0.3,0-0.5,0.1-0.8h0.9v3.5h-1V8.8z M20.1,4.7c1.2,0,2.3,0.7,2.9,1.8h-5.9C17.8,5.4,18.9,4.7,20.1,4.7
	 M22.7,8.1h0.9c0,0.2,0.1,0.5,0.1,0.8v2.8h-1V8.1z M21.3,11.6h-2.4V8.1h2.4V11.6z M25.2,36.8l0.1,2.8h-7.1L25.2,36.8z M15,36.2l10-4
	l0.1,3l-10.3,4.1L15,36.2z M15.2,31.3l9.6-3.9l0.1,3l-9.8,4L15.2,31.3z M15.5,26.5l9.1-3.7l0.1,3l-9.4,3.8L15.5,26.5z M15.7,21.7
	l8.7-3.5l0.1,3l-9,3.6L15.7,21.7z M39.3,43.4c-0.9,0-1.4,0.4-1.7,0.6c-0.3,0.2-0.5,0.4-1,0.4s-0.7-0.2-1-0.4
	c-0.4-0.3-0.9-0.6-1.7-0.6c-0.9,0-1.4,0.4-1.7,0.6c-0.3,0.2-0.5,0.4-1,0.4s-0.7-0.2-1-0.4c-0.3-0.2-0.6-0.4-1-0.5l-0.5-3.2
	c-0.1-0.4-0.3-0.7-0.7-0.7h-1.2l-1-22.1h0.7c0.4,0,0.7-0.3,0.7-0.8v-4.4c0-0.4-0.3-0.8-0.7-0.8H25V8.8c0-2.9-1.8-5.3-4.2-5.6V0.8
	c0-0.4-0.3-0.8-0.7-0.8c-0.4,0-0.7,0.3-0.7,0.8v2.4c-2.4,0.4-4.2,2.8-4.2,5.6v2.8h-1.4c-0.4,0-0.7,0.3-0.7,0.8v4.4
	c0,0.4,0.3,0.8,0.7,0.8h0.7l-1,22.1h-1.5c-0.3,0-0.6,0.3-0.7,0.7L11,43.5c-0.4,0.1-0.7,0.4-1,0.5c-0.3,0.2-0.5,0.4-1,0.4
	s-0.7-0.2-1-0.4c-0.4-0.3-0.9-0.6-1.7-0.6c-0.9,0-1.4,0.4-1.7,0.6c-0.3,0.2-0.5,0.4-1,0.4s-0.7-0.2-1-0.4c-0.4-0.3-0.9-0.6-1.7-0.6
	c-0.4,0-0.7,0.3-0.7,0.8S0.3,45,0.7,45c0.5,0,0.7,0.2,1,0.4C2.1,45.6,2.5,46,3.4,46c0.9,0,1.4-0.4,1.7-0.6c0.3-0.2,0.5-0.4,1-0.4
	s0.7,0.2,1,0.4C7.6,45.6,8.1,46,9,46s1.4-0.4,1.7-0.6c0.3-0.2,0.5-0.4,1-0.4c0.5,0,0.7,0.2,1,0.4c0.4,0.3,0.9,0.6,1.7,0.6
	s1.4-0.4,1.7-0.6c0.3-0.2,0.5-0.4,1-0.4c0.5,0,0.7,0.2,1,0.4c0.4,0.3,0.9,0.6,1.7,0.6c0.9,0,1.4-0.4,1.7-0.6c0.3-0.2,0.5-0.4,1-0.4
	s0.7,0.2,1,0.4c0.4,0.3,0.9,0.6,1.7,0.6c0.9,0,1.4-0.4,1.7-0.6c0.3-0.2,0.5-0.4,1-0.4s0.7,0.2,1,0.4c0.4,0.3,0.9,0.6,1.7,0.6
	c0.9,0,1.4-0.4,1.7-0.6c0.3-0.2,0.5-0.4,1-0.4s0.7,0.2,1,0.4c0.4,0.3,0.9,0.6,1.7,0.6s1.4-0.4,1.7-0.6c0.3-0.2,0.5-0.4,1-0.4
	c0.4,0,0.7-0.3,0.7-0.8S39.7,43.4,39.3,43.4"/>
</svg>
