<?xml version="1.0" encoding="utf-8"?>
<!-- Generator: Adobe Illustrator 20.0.0, SVG Export Plug-In . SVG Version: 6.00 Build 0)  -->
<svg version="1.1" id="Layer_1" xmlns="http://www.w3.org/2000/svg" xmlns:xlink="http://www.w3.org/1999/xlink" x="0px" y="0px"
	 viewBox="0 0 36 29" style="enable-background:new 0 0 36 29;" xml:space="preserve">
<style type="text/css">
	.st0{fill:#00648C;}
</style>
<path class="st0" d="M18,4.4c0.2,0,0.3,0.2,0.3,0.4c0,0.2-0.1,0.4-0.3,0.4c-0.2,0-0.3-0.2-0.3-0.4C17.7,4.5,17.8,4.4,18,4.4
	 M14.2,10.9l0.3,0.2c0,1.5,0.9,2.7,2.5,3.1l0.5,0.6c0,0,0,0,0,0c0,0,0,0,0,0c0,0,0,0,0,0c0,0,0,0,0,0c0,0,0,0,0,0c0,0,0,0,0,0
	c0,0,0,0,0,0c0,0,0,0,0,0c0.1,0,0.2,0.1,0.3,0.1c0.1,0,0.2,0,0.2,0c0,0,0,0,0,0c0,0,0,0,0,0c0,0,0,0,0,0c0,0,0,0,0,0c0,0,0,0,0,0
	c0,0,0,0,0,0c0,0,0,0,0,0c0,0,0,0,0,0c0,0,0,0,0,0l0.5-0.6c1.6-0.4,2.5-1.6,2.5-3.1l0.3-0.2c0.3-0.1,0.4-0.5,0.3-0.8
	c-0.1-0.3-0.5-0.4-0.8-0.3l-0.6,0.3c-0.2,0.1-0.3,0.3-0.3,0.5V11c0,1-0.6,1.7-1.7,2V8.6h0.6c0.3,0,0.6-0.3,0.6-0.6
	c0-0.3-0.3-0.6-0.6-0.6h-0.6V6.2c0,0,0,0,0,0c0.5-0.2,0.9-0.8,0.9-1.4c0-0.9-0.7-1.6-1.5-1.6c-0.8,0-1.5,0.7-1.5,1.6
	c0,0.6,0.4,1.2,0.9,1.4c0,0,0,0,0,0v1.1h-0.6c-0.3,0-0.6,0.3-0.6,0.6c0,0.3,0.3,0.6,0.6,0.6h0.6V13c-1.2-0.3-1.7-1-1.7-2v-0.3
	c0-0.2-0.1-0.4-0.3-0.5l-0.6-0.3c-0.3-0.1-0.6,0-0.8,0.3C13.8,10.3,14,10.7,14.2,10.9 M2.8,6.2l9-3.7c4-1.7,8.5-1.7,12.5,0l8.9,3.7
	c1.3,0.5,1.9,2,1.5,3.4l-2,6.3h-0.6c-0.3,0-0.6,0.3-0.6,0.6c0,0.3,0.3,0.6,0.6,0.6h0.4v2H3.4v-2h25.7c0.3,0,0.6-0.3,0.6-0.6
	c0-0.3-0.3-0.6-0.6-0.6H3.2l-2-6.3C0.8,8.2,1.5,6.7,2.8,6.2 M35.8,10c0.6-2-0.3-4.2-2.2-4.9l-8.9-3.7c-4.3-1.8-9.1-1.8-13.4,0
	l-9,3.7C0.5,5.8-0.4,8,0.2,10l2.1,6.6v3c-0.6,1-0.7,2.1-0.2,3.2c1.7,3.7,9.8,6.2,16,6.2c6.2,0,14.2-2.6,16-6.2
	c0.5-1.1,0.4-2.2-0.2-3.2v-3L35.8,10z"/>
</svg>
