<?xml version="1.0" encoding="utf-8"?>
<!-- Generator: Adobe Illustrator 20.0.0, SVG Export Plug-In . SVG Version: 6.00 Build 0)  -->
<svg version="1.1" id="Layer_1" xmlns="http://www.w3.org/2000/svg" xmlns:xlink="http://www.w3.org/1999/xlink" x="0px" y="0px"
	 viewBox="0 0 45 45" style="enable-background:new 0 0 45 45;" xml:space="preserve">
<style type="text/css">
	.st0{fill:#00648C;}
</style>
<path class="st0" d="M25.6,22.5c0,1.7-1.4,3.1-3.1,3.1c-1.7,0-3.1-1.4-3.1-3.1c0-1.7,1.4-3.1,3.1-3.1C24.2,19.4,25.6,20.8,25.6,22.5
	 M43.6,21.6c0,3.3-2.6,5.9-5.9,5.9c-0.4,0-0.8,0-1.2-0.1c0,0,0,0,0,0l-7.6-2.6c0.1-0.4,0.2-0.8,0.3-1.2c0,0,0,0,0,0
	c0-0.1,0-0.2,0-0.3c0,0,0,0,0,0h10.2c0.4,0,0.7-0.3,0.7-0.7c0-0.4-0.3-0.7-0.7-0.7H29.2c0,0,0,0,0,0c0-0.1,0-0.2,0-0.3c0,0,0,0,0,0
	c0-0.1,0-0.2-0.1-0.3c0,0,0,0,0,0c0-0.1,0-0.2-0.1-0.3h14.3c0.1,0,0.2,0.1,0.2,0.2V21.6z M24.6,27.4C24.6,27.4,24.6,27.4,24.6,27.4
	c-0.1,0-0.2,0.1-0.2,0.1c0,0,0,0,0,0c-0.1,0-0.1,0.1-0.2,0.1c0,0,0,0,0,0c-0.2,0.1-0.5,0.1-0.8,0.2c0,0,0,0,0,0c-0.1,0-0.2,0-0.3,0
	c-0.2,0-0.4,0-0.5,0c-0.1,0-0.2,0-0.3,0c0,0-0.1,0-0.1,0c-0.1,0-0.1,0-0.2,0c-0.1,0-0.1,0-0.2,0c0,0-0.1,0-0.1,0c-0.1,0-0.1,0-0.2,0
	c0,0-0.1,0-0.1,0c-0.1,0-0.1,0-0.2,0c0,0,0,0-0.1,0c-0.1,0-0.1,0-0.2-0.1c0,0,0,0,0,0c-2.2-0.7-3.7-2.7-3.7-5.1c0-0.1,0-0.1,0-0.2
	c0,0,0-0.1,0-0.1c0-0.1,0-0.1,0-0.2c0,0,0-0.1,0-0.1c0-0.1,0-0.1,0-0.2c0,0,0,0,0-0.1c0-0.1,0-0.1,0-0.2c0,0,0,0,0,0
	c0-0.1,0-0.2,0.1-0.2c0,0,0,0,0,0c0-0.1,0-0.2,0.1-0.2c0,0,0,0,0,0c0.7-2.2,2.7-3.8,5.1-3.8c0.1,0,0.2,0,0.3,0c0,0,0.1,0,0.1,0
	c0,0,0.1,0,0.1,0c0.1,0,0.1,0,0.2,0c0,0,0.1,0,0.1,0c0.1,0,0.1,0,0.2,0c0,0,0,0,0.1,0c0.1,0,0.1,0,0.2,0.1c0,0,0,0,0,0
	c0.1,0,0.2,0,0.2,0.1c0,0,0,0,0,0c1.5,0.5,2.7,1.6,3.3,3c0,0,0,0,0,0c0,0.1,0.1,0.1,0.1,0.2c0,0,0,0,0,0c0.1,0.4,0.2,0.8,0.3,1.3
	c0,0.2,0,0.4,0,0.5c0,0.1,0,0.2,0,0.3c0,0,0,0.1,0,0.1c0,0.1,0,0.1,0,0.2c0,0.1,0,0.1,0,0.2c0,0,0,0.1,0,0.1c0,0.1,0,0.1,0,0.2
	c0,0,0,0.1,0,0.1c0,0.1,0,0.1,0,0.2c0,0,0,0,0,0.1c0,0.1,0,0.1-0.1,0.2c0,0,0,0,0,0C27.1,25.6,26,26.8,24.6,27.4 M24.2,29v14.3
	c0,0.1-0.1,0.2-0.2,0.2h-0.6c-1.8,0-3.5-0.8-4.6-2.2c-1.1-1.4-1.6-3.2-1.2-4.9c0,0,0,0,0,0l2.6-7.6c0.4,0.1,0.8,0.2,1.2,0.3
	c0,0,0,0,0,0c0.1,0,0.2,0,0.3,0c0,0,0,0,0,0v10.2c0,0.4,0.3,0.7,0.7,0.7c0.4,0,0.7-0.3,0.7-0.7V29.2c0,0,0,0,0,0c0.1,0,0.2,0,0.3,0
	c0,0,0,0,0,0c0.1,0,0.2,0,0.3-0.1c0,0,0,0,0,0C24,29.1,24.1,29.1,24.2,29 M16,24.2H1.7c-0.1,0-0.2-0.1-0.2-0.2v-0.5
	c0-0.1,0-0.1,0-0.2h11.4c0.4,0,0.7-0.3,0.7-0.7c0-0.4-0.3-0.7-0.7-0.7H1.7c0.7-2.5,3-4.3,5.7-4.3c0.4,0,0.8,0,1.2,0.1c0,0,0,0,0,0
	l7.6,2.6c-0.1,0.4-0.2,0.8-0.3,1.2c0,0,0,0,0,0c0,0.1,0,0.2,0,0.3c0,0,0,0,0,0c0,0.1,0,0.2,0,0.3c0,0,0,0,0,0c0,0.1,0,0.2,0,0.3
	c0,0.1,0,0.2,0,0.3c0,0,0,0,0,0C15.8,23.3,15.8,23.8,16,24.2 M20.8,16V1.7c0-0.1,0.1-0.2,0.2-0.2h0.5c0.1,0,0.1,0,0.2,0v10.2
	c0,0.4,0.3,0.7,0.7,0.7c0.4,0,0.7-0.3,0.7-0.7v-10c1.1,0.3,2.2,1,2.9,1.9c1.1,1.4,1.6,3.2,1.2,4.9c0,0,0,0,0,0l-2.6,7.6
	c-0.4-0.1-0.8-0.2-1.2-0.3c0,0,0,0,0,0c-0.1,0-0.2,0-0.3,0c0,0,0,0-0.1,0c-0.1,0-0.2,0-0.3,0c0,0-0.1,0-0.1,0c-0.1,0-0.2,0-0.3,0h0
	h0c-0.1,0-0.2,0-0.3,0c0,0,0,0-0.1,0c-0.1,0-0.2,0-0.3,0c0,0,0,0,0,0C21.5,15.8,21.1,15.9,20.8,16 M43.3,19.4H28.5
	c-0.6-1.1-1.4-2-2.5-2.7L28.7,9c0-0.1,0-0.1,0.1-0.2c0.4-2.2-0.1-4.4-1.5-6.1c-1.1-1.4-2.7-2.3-4.4-2.6C22.8,0,22.6,0,22.5,0
	c-0.1,0-0.1,0-0.2,0c-0.2,0-0.5,0-0.7,0H21c-0.9,0-1.7,0.7-1.7,1.7v14.9c-1.1,0.6-2,1.4-2.7,2.5L9,16.3c-0.1,0-0.1,0-0.2-0.1
	c-0.5-0.1-1-0.1-1.5-0.1c-3.7,0-6.7,2.7-7.2,6.3c0,0,0,0.1,0,0.1c0,0.3-0.1,0.6-0.1,1V24c0,0.9,0.7,1.7,1.7,1.7h14.9
	c0.6,1.1,1.4,2,2.5,2.7L16.3,36c0,0.1,0,0.1-0.1,0.2c-0.4,2.2,0.1,4.4,1.5,6.1c1.4,1.7,3.5,2.7,5.7,2.7H24c0.9,0,1.7-0.7,1.7-1.7
	V28.5c1.1-0.6,2-1.4,2.7-2.5l7.7,2.7c0.1,0,0.1,0,0.2,0.1c0.5,0.1,1,0.1,1.5,0.1c4,0,7.3-3.3,7.3-7.3V21
	C45,20.1,44.3,19.4,43.3,19.4"/>
</svg>
